<?xml version="1.0" encoding="utf-8"?>
<!-- Generator: Adobe Illustrator 15.0.0, SVG Export Plug-In . SVG Version: 6.00 Build 0)  -->
<!DOCTYPE svg PUBLIC "-//W3C//DTD SVG 1.1//EN" "http://www.w3.org/Graphics/SVG/1.1/DTD/svg11.dtd">
<svg version="1.1" id="Layer_1" xmlns="http://www.w3.org/2000/svg" xmlns:xlink="http://www.w3.org/1999/xlink" x="0px" y="0px"
	 width="40px" height="40px" viewBox="0 0 40 40" enable-background="new 0 0 40 40" xml:space="preserve">
<g>
	<path fill="#FFFFFF" d="M20.742,0.5c-4.148,0-7.523,3.375-7.523,7.524c0,4.146,3.375,7.521,7.523,7.521
		c4.146,0,7.521-3.375,7.521-7.521C28.264,3.875,24.889,0.5,20.742,0.5 M20.742,13.824c-3.195,0-5.8-2.599-5.8-5.8
		c0-3.205,2.604-5.802,5.8-5.802c3.201,0,5.801,2.598,5.801,5.802C26.543,11.225,23.943,13.824,20.742,13.824"/>
	<path fill="#FFFFFF" d="M24.479,17.195h-7.474c-5.344,0-9.691,4.348-9.691,9.695V39.5H34.17V26.89
		C34.17,21.543,29.822,17.195,24.479,17.195 M32.443,37.776h-3.707V26.458h-1.572v11.318H14.166V26.458h-1.571v11.318H9.035V26.89
		c0.007-4.402,3.565-7.962,7.97-7.969h7.474c4.4,0.007,7.959,3.567,7.965,7.969V37.776z"/>
</g>
</svg>
