<?xml version="1.0" encoding="utf-8"?>
<!-- Generator: Adobe Illustrator 15.0.0, SVG Export Plug-In . SVG Version: 6.00 Build 0)  -->
<!DOCTYPE svg PUBLIC "-//W3C//DTD SVG 1.1//EN" "http://www.w3.org/Graphics/SVG/1.1/DTD/svg11.dtd">
<svg version="1.1" id="Camada_1" xmlns="http://www.w3.org/2000/svg" xmlns:xlink="http://www.w3.org/1999/xlink" x="0px" y="0px"
	 width="279.25px" height="32px" viewBox="0 0 279.25 32" enable-background="new 0 0 279.25 32" xml:space="preserve">
<g>
	<path fill="#FFFFFF" d="M21.732,4.275c-0.094,0.182-0.829,1.445-0.474,2.4c0.092,0.244,1.193,0.475,1.528-0.49l1.386-0.013
		c-0.29,1.038-1.313,1.672-2.537,1.633c-0.432-0.012-2.443,0.132-1.803-2.421c0.113-0.45,0.272-0.831,0.467-1.15
		c0.195-0.319,0.866-1.302,2.55-1.321c2.204-0.024,1.832,1.329,1.773,1.585l-1.383-0.014C23.411,3.619,22.044,3.677,21.732,4.275"/>
	<polygon fill="#FFFFFF" points="13.465,3.003 13.214,3.966 11.231,3.966 10.939,5.038 12.768,5.038 12.523,5.947 10.696,5.947 
		10.237,7.677 8.913,7.677 10.16,3.003 	"/>
	<polygon fill="#FFFFFF" points="15.448,3.003 14.203,7.677 12.878,7.677 14.123,3.003 	"/>
	<polygon fill="#FFFFFF" points="19.82,3.003 19.567,3.966 17.333,3.966 17.088,4.883 19.174,4.883 18.91,5.851 16.823,5.851 
		16.583,6.759 18.817,6.759 18.573,7.677 15.015,7.677 16.26,3.003 	"/>
	<path fill="#FFFFFF" d="M19.167,13.401c-0.246,0.899,0.859,0.706,1.1,0.547c0.562-0.37,0.184-0.709-0.062-0.813
		c-0.22-0.089-0.64-0.156-1.146-0.337c-0.95-0.34-0.751-1.184-0.386-1.779c0.309-0.504,1.054-0.736,1.343-0.797
		c1.115-0.24,2.016,0.031,2.198,0.365c0.074,0.136,0.253,0.412,0.099,1.028l-1.329-0.013c0.098-0.316-0.158-0.445-0.228-0.466
		c-0.53-0.153-0.816,0.182-0.852,0.228c-0.243,0.331,0.053,0.557,0.291,0.598c0.193,0.035,1.057,0.162,1.563,0.56
		c0.124,0.096,0.616,0.592-0.137,1.669c-0.159,0.23-0.785,0.851-2.13,0.851c-0.342,0-0.973,0.022-1.439-0.404
		c-0.371-0.339-0.285-0.956-0.227-1.225l0.005-0.013H19.167z"/>
	<path fill="#FFFFFF" d="M10.146,13.401c-0.243,0.899,0.862,0.706,1.103,0.547c0.562-0.37,0.184-0.709-0.064-0.813
		c-0.218-0.089-0.641-0.156-1.148-0.337c-0.944-0.34-0.75-1.184-0.385-1.779c0.311-0.504,1.056-0.736,1.346-0.797
		c1.113-0.24,2.015,0.031,2.197,0.365c0.075,0.136,0.256,0.412,0.097,1.028l-1.327-0.013c0.101-0.316-0.16-0.445-0.228-0.466
		c-0.53-0.153-0.817,0.182-0.851,0.228c-0.243,0.331,0.052,0.557,0.291,0.598c0.193,0.035,1.056,0.162,1.563,0.56
		c0.124,0.096,0.615,0.592-0.137,1.669c-0.162,0.23-0.785,0.851-2.13,0.851c-0.345,0-0.973,0.022-1.442-0.404
		c-0.367-0.339-0.283-0.956-0.228-1.225l0.008-0.013H10.146z"/>
	<polygon fill="#FFFFFF" points="18.081,10.243 17.831,11.205 15.597,11.205 15.351,12.122 17.438,12.122 17.172,13.091 
		15.086,13.091 14.85,14 17.081,14 16.835,14.918 13.28,14.918 14.524,10.243 	"/>
	<polygon fill="#FFFFFF" points="24.841,10.243 23.595,14.918 22.274,14.918 23.519,10.243 	"/>
	<path fill="#FFFFFF" d="M7.105,20.629c-0.244,0.898,0.859,0.705,1.1,0.547c0.562-0.371,0.186-0.707-0.06-0.811
		c-0.221-0.092-0.642-0.158-1.149-0.34c-0.947-0.34-0.748-1.185-0.387-1.777c0.312-0.506,1.057-0.738,1.345-0.801
		c1.117-0.236,2.016,0.035,2.199,0.367c0.073,0.139,0.256,0.414,0.096,1.028l-1.328-0.016c0.101-0.313-0.156-0.441-0.227-0.463
		c-0.529-0.152-0.816,0.182-0.852,0.227c-0.242,0.333,0.054,0.56,0.292,0.599c0.192,0.035,1.056,0.164,1.563,0.559
		c0.124,0.098,0.615,0.594-0.136,1.674C9.4,21.65,8.774,22.27,7.432,22.27c-0.343,0-0.973,0.025-1.44-0.403
		c-0.372-0.339-0.283-0.955-0.227-1.224l0.007-0.014H7.105z"/>
	<polygon fill="#FFFFFF" points="15.017,17.477 14.763,18.439 12.53,18.439 12.284,19.355 14.368,19.355 14.104,20.324 
		12.02,20.324 11.782,21.236 14.013,21.236 13.77,22.15 10.21,22.15 11.458,17.477 	"/>
	<polygon fill="#FFFFFF" points="17.605,17.477 18.261,20.932 19.186,17.477 20.355,17.477 19.107,22.15 17.276,22.15 
		16.635,18.645 15.7,22.15 14.532,22.15 15.776,17.477 	"/>
	<path fill="#FFFFFF" d="M24.216,17.477l0.585,4.674h-1.469l-0.086-0.862h-1.827l-0.528,0.862h-1.376l3.125-4.674H24.216z
		 M23.104,18.439l-1.123,1.885h1.169L23.104,18.439z"/>
	<polygon fill="#FFFFFF" points="27.883,17.477 26.636,22.15 25.313,22.15 26.559,17.477 	"/>
	<polygon fill="#FFFFFF" points="14.306,24.701 13.059,29.375 11.736,29.375 12.981,24.701 	"/>
	<polygon fill="#FFFFFF" points="18.675,24.701 18.425,25.662 16.19,25.662 15.945,26.58 18.032,26.58 17.766,27.549 15.678,27.549 
		15.44,28.457 17.675,28.457 17.429,29.375 13.874,29.375 15.119,24.701 	"/>
	<polygon fill="#FFFFFF" points="20.76,24.701 19.775,28.406 21.858,28.406 21.601,29.375 18.191,29.375 19.438,24.701 	"/>
	<rect x="1.706" y="30.02" fill="#FFFFFF" width="30.187" height="1.265"/>
	<rect x="1.706" y="22.795" fill="#FFFFFF" width="30.187" height="1.262"/>
	<rect x="1.706" y="15.57" fill="#FFFFFF" width="30.187" height="1.26"/>
	<rect x="1.706" y="8.342" fill="#FFFFFF" width="30.187" height="1.261"/>
	<rect x="1.706" y="1.116" fill="#FFFFFF" width="30.187" height="1.262"/>
	<rect x="43.942" y="30.02" fill="#FFFFFF" width="7.53" height="1.265"/>
	<rect x="43.942" y="22.795" fill="#FFFFFF" width="7.53" height="1.262"/>
	<rect x="43.942" y="15.57" fill="#FFFFFF" width="7.53" height="1.26"/>
	<rect x="43.942" y="8.342" fill="#FFFFFF" width="7.53" height="1.261"/>
	<rect x="43.942" y="1.116" fill="#FFFFFF" width="7.53" height="1.262"/>
	<rect x="269.768" y="30.031" fill="#FFFFFF" width="7.531" height="1.262"/>
	<rect x="269.768" y="22.807" fill="#FFFFFF" width="7.531" height="1.262"/>
	<rect x="269.768" y="15.582" fill="#FFFFFF" width="7.531" height="1.26"/>
	<rect x="269.768" y="8.354" fill="#FFFFFF" width="7.531" height="1.261"/>
	<rect x="269.768" y="1.128" fill="#FFFFFF" width="7.531" height="1.261"/>
	<path fill="#FFFFFF" d="M73.406,12.148c1.152-4.114-2.197-5.365-5.717-5.365c-3.568,0-7.353,1.111-8.4,5.152
		c-0.39,1.845,0.126,3.403,1.69,4.16c3.363,1.632,6.97,1.136,6.476,3.45c-0.237,1.137-1.754,1.705-2.844,1.705
		c-1.702,0-2.694-0.875-2.333-2.482h-4.724c-0.914,4.629,2.339,5.793,6.309,5.793c3.947,0,7.854-1.705,8.62-5.299
		c0.976-4.608-3.118-4.892-5.827-5.624c-1.181-0.333-2.607-0.734-2.344-1.987c0.182-0.851,1.275-1.56,2.365-1.56
		c0.802,0,1.379,0.189,1.706,0.544c0.348,0.355,0.456,0.849,0.294,1.513H73.406z M78.642,24.201h-4.493l2.523-11.864h4.49
		L78.642,24.201z M81.619,10.304l0.674-3.167h-4.539l-0.672,3.167H81.619z M94.144,16c0.508-3.284-1.942-4.017-4.752-4.017
		c-2.362,0-5.653,0.803-6.274,3.734c-0.914,4.301,6.369,3.051,5.922,5.152c-0.157,0.758-0.871,1.088-1.742,1.088
		c-0.43,0-0.752-0.236-0.95-0.543c-0.194-0.309-0.226-0.707-0.079-1.064h-4.255c-0.791,3.617,1.92,4.211,4.825,4.211
		c2.721,0,5.843-0.807,6.515-3.951c0.408-1.938-0.372-2.813-1.692-3.262c-2.631-0.874-4.461-0.828-4.273-1.701
		c0.145-0.687,0.626-1.066,1.289-1.066c0.615,0,0.956,0.165,1.137,0.428c0.167,0.234,0.158,0.59,0.076,0.991H94.144z M96.287,12.337
		l-0.6,2.836h2.318L96.87,20.49c-1.008,3.643,0.748,4.07,3.795,4.07c0.662,0,1.404-0.047,2.463-0.236l0.568-2.676
		c-0.537,0.071-1.152,0.071-1.742,0.071c-1.041,0-0.525-1.536-0.461-1.842l1-4.706h2.599l0.603-2.836h-2.599l0.745-3.497
		l-4.855,1.701l-0.384,1.796L96.287,12.337L96.287,12.337z M118.568,19.17h-8.508c-0.35,1.537-0.23,2.857,1.446,2.857
		c1.254,0,2.157-0.592,2.561-1.699h4.162c-0.469,1.533-1.676,2.645-2.948,3.307c-1.181,0.666-2.56,0.926-3.955,0.926
		c-4.75,0-6.209-2.037-5.221-6.69c0.799-3.758,4.063-5.886,7.633-5.886C118.56,11.983,119.511,14.746,118.568,19.17 M110.668,16.758
		h4.162c0.133-0.64,0.082-1.277-0.17-1.773c-0.25-0.496-0.703-0.804-1.4-0.756C111.685,14.298,111.072,15.409,110.668,16.758
		 M126.641,12.337h-4.445c-0.152,1.276-0.279,1.985-0.505,3.048l-1.874,8.816h4.492l1.443-6.807
		c0.031-0.142,0.266-2.576,2.488-2.576c1.392,0,1.414,1.251,1.211,2.412l-1.48,6.971h4.492l1.447-6.807
		c0.029-0.142,0.262-2.576,2.483-2.576c1.399,0,1.416,1.251,1.216,2.412l-1.483,6.971h4.49l1.69-7.941
		c0.558-2.622-0.979-4.277-3.536-4.277c-1.784,0.046-3.583,0.85-4.691,2.269c-0.187-1.444-1.658-2.199-3.099-2.199
		c-1.774,0-3.468,0.613-4.641,2.245h-0.046L126.641,12.337z M147.947,20.396c0.181-0.826,0.789-1.252,1.523-1.584
		c0.674-0.308,1.567-0.258,2.51-0.258c-0.336,1.581-0.889,3.401-2.828,3.401C148.302,21.957,147.766,21.25,147.947,20.396
		 M155.248,24.201c0.139-1.416,0.152-1.938,0.256-2.434l1.301-6.099c0.614-2.671-2.076-3.687-4.49-3.687
		c-1.326,0-2.889,0.14-4.238,0.709c-1.32,0.543-2.399,1.512-2.732,3.19h4.227c0.128-0.709,0.712-1.771,1.809-1.821
		c1.813-0.069,1.252,1.442,1.031,2.484h-1.42c-3.877,0-6.772,1.183-7.43,4.063c-0.567,2.437,0.576,3.951,3.39,3.951
		c2.222,0,3.474-1.115,4.198-1.965h0.045c-0.178,0.85-0.258,1.23-0.244,1.605h4.299V24.201z"/>
	<path fill="#FFFFFF" d="M244.904,9.314c-0.605,1.169-5.35,9.336-3.059,15.502c0.586,1.563,7.703,3.059,9.864-3.172l8.948-0.082
		c-1.865,6.709-8.475,10.799-16.379,10.551c-2.795-0.082-15.784,0.852-11.646-15.638c0.72-2.908,1.751-5.37,3.011-7.432
		c1.262-2.055,5.597-8.406,16.474-8.529c14.229-0.152,11.829,8.579,11.454,10.226l-8.938-0.081
		C255.751,5.078,246.918,5.45,244.904,9.314"/>
	<polygon fill="#FFFFFF" points="191.512,1.094 189.893,7.307 177.081,7.307 175.2,14.231 187.012,14.231 185.427,20.107 
		173.63,20.107 170.669,31.279 162.113,31.279 170.162,1.094 	"/>
	<polygon fill="#FFFFFF" points="204.32,1.094 196.271,31.279 187.714,31.279 195.764,1.094 	"/>
	<polygon fill="#FFFFFF" points="232.553,1.094 230.918,7.307 216.491,7.307 214.902,13.234 228.379,13.234 226.682,19.484 
		213.201,19.484 211.648,25.357 226.074,25.357 224.506,31.279 201.523,31.279 209.572,1.094 	"/>
</g>
</svg>
