<?xml version="1.0" encoding="utf-8"?>
<!-- Generator: Adobe Illustrator 15.0.0, SVG Export Plug-In . SVG Version: 6.00 Build 0)  -->
<!DOCTYPE svg PUBLIC "-//W3C//DTD SVG 1.1//EN" "http://www.w3.org/Graphics/SVG/1.1/DTD/svg11.dtd">
<svg version="1.1" id="Camada_1" xmlns="http://www.w3.org/2000/svg" xmlns:xlink="http://www.w3.org/1999/xlink" x="0px" y="0px"
	 width="40px" height="40px" viewBox="0 0 40 40" enable-background="new 0 0 40 40" xml:space="preserve">
<g>
	<path fill="#FFFFFF" d="M39.508,10.262c-0.021-0.028-0.535-0.673-1.217-1.356c-0.676-0.673-1.43-1.294-1.453-1.32l-1.037-0.853
		V3.932l-1.656,0.042c-0.15,0.002-3.691,0.102-7.311,1.182c-3.467,1.031-6.478,2.805-6.835,3.021
		c-0.355-0.216-3.367-1.989-6.83-3.021c-3.617-1.08-7.162-1.18-7.313-1.182l-1.66-0.042v2.801L3.16,7.585
		c-0.023,0.026-0.776,0.647-1.451,1.32c-0.682,0.684-1.19,1.328-1.214,1.356l-0.35,0.441v21.563l5.113,0.452
		c0.031,0.001,3.13,0.331,7.903,1.974c0.23,0.08,0.471,0.167,0.707,0.254c0,0,2.901,1.122,6.132,1.122
		c3.237,0,6.136-1.122,6.136-1.122c0.232-0.087,0.477-0.174,0.705-0.254c4.773-1.643,7.877-1.973,7.885-1.973l5.131-0.453V10.703
		L39.508,10.262z M20.816,9.576c0,0,3.02-1.839,6.479-2.868c3.453-1.029,6.889-1.114,6.889-1.114v21.072c0,0-3.578,0.304-9.322,2.28
		c-1.531,0.526-2.889,1.106-4.051,1.674L20.816,9.576z M5.82,5.594c0,0,3.43,0.085,6.883,1.114c3.46,1.029,6.486,2.868,6.486,2.868
		V30.62c-1.166-0.567-2.519-1.147-4.052-1.677C9.394,26.97,5.82,26.666,5.82,26.666V5.594z M15.57,33.874
		c-0.617-0.258-1.25-0.495-1.882-0.716c-5.021-1.726-8.238-2.052-8.271-2.054L1.766,30.78V11.268c0,0,0.467-0.592,1.092-1.217
		c0.624-0.625,1.339-1.216,1.339-1.216v17.831l0.002,1.483l1.481,0.129c0.033,0.004,3.485,0.324,8.93,2.198
		c1.267,0.438,2.516,0.95,3.711,1.521C17.151,32.726,16.169,33.426,15.57,33.874 M19.999,34.782c-1.873,0-2.756-0.152-2.756-0.152
		s1.349-0.908,2.756-1.73c1.411,0.822,2.763,1.73,2.763,1.73S21.873,34.782,19.999,34.782 M38.238,30.78l-3.652,0.324
		c-0.033,0.002-3.252,0.328-8.271,2.054c-0.635,0.221-1.264,0.458-1.881,0.716c-0.604-0.45-1.58-1.151-2.756-1.876
		c1.195-0.573,2.443-1.084,3.713-1.521c5.445-1.874,8.896-2.196,8.934-2.198l1.477-0.132l0.006-1.48V8.835
		c0,0,0.717,0.591,1.342,1.216c0.621,0.625,1.09,1.217,1.09,1.217V30.78z"/>
</g>
</svg>
