<?xml version="1.0" encoding="utf-8"?>
<!-- Generator: Adobe Illustrator 15.0.0, SVG Export Plug-In . SVG Version: 6.00 Build 0)  -->
<!DOCTYPE svg PUBLIC "-//W3C//DTD SVG 1.0//EN" "http://www.w3.org/TR/2001/REC-SVG-20010904/DTD/svg10.dtd">
<svg version="1.0" id="Camada_1" xmlns="http://www.w3.org/2000/svg" xmlns:xlink="http://www.w3.org/1999/xlink" x="0px" y="0px"
	 width="129px" height="32px" viewBox="0 0 129 32" enable-background="new 0 0 129 32" xml:space="preserve">
<g>
	<rect x="0.283" y="29.678" fill="#CFCFCF" width="7.531" height="1.262"/>
	<rect x="0.283" y="22.452" fill="#CFCFCF" width="7.531" height="1.26"/>
	<rect x="0.283" y="15.228" fill="#CFCFCF" width="7.531" height="1.26"/>
	<rect x="0.283" y="7.999" fill="#CFCFCF" width="7.531" height="1.261"/>
	<rect x="0.283" y="0.773" fill="#CFCFCF" width="7.531" height="1.262"/>
	<rect x="121.186" y="29.688" fill="#CFCFCF" width="7.531" height="1.266"/>
	<rect x="121.186" y="22.462" fill="#CFCFCF" width="7.531" height="1.263"/>
	<rect x="121.186" y="15.238" fill="#CFCFCF" width="7.531" height="1.259"/>
	<rect x="121.186" y="8.01" fill="#CFCFCF" width="7.531" height="1.26"/>
	<rect x="121.186" y="0.784" fill="#CFCFCF" width="7.531" height="1.262"/>
	<path fill="#CFCFCF" d="M96.188,9.007c-0.604,1.165-5.338,9.318-3.053,15.478c0.584,1.562,7.688,3.056,9.846-3.166l8.936-0.08
		c-1.861,6.691-8.455,10.777-16.35,10.529c-2.793-0.082-15.76,0.853-11.627-15.612c0.725-2.903,1.746-5.361,3.008-7.418
		c1.256-2.051,5.584-8.391,16.439-8.514c14.209-0.153,11.809,8.565,11.438,10.209l-8.92-0.081
		C107.014,4.778,98.195,5.149,96.188,9.007"/>
	<polygon fill="#CFCFCF" points="43.127,0.801 41.512,7.003 28.724,7.003 26.846,13.914 38.637,13.914 37.052,19.779 25.279,19.779 
		22.322,30.934 13.78,30.934 21.818,0.801 	"/>
	<polygon fill="#CFCFCF" points="55.916,0.801 47.88,30.934 39.338,30.934 47.375,0.801 	"/>
	<polygon fill="#CFCFCF" points="84.098,0.801 82.469,7.003 68.066,7.003 66.48,12.919 79.936,12.919 78.234,19.16 64.78,19.16 
		63.231,25.023 77.631,25.023 76.066,30.934 53.125,30.934 61.159,0.801 	"/>
</g>
</svg>
