<?xml version="1.0" encoding="utf-8"?>
<!-- Generator: Adobe Illustrator 15.0.0, SVG Export Plug-In . SVG Version: 6.00 Build 0)  -->
<!DOCTYPE svg PUBLIC "-//W3C//DTD SVG 1.1//EN" "http://www.w3.org/Graphics/SVG/1.1/DTD/svg11.dtd">
<svg version="1.1" id="Camada_1" xmlns="http://www.w3.org/2000/svg" xmlns:xlink="http://www.w3.org/1999/xlink" x="0px" y="0px"
	 width="40px" height="40px" viewBox="0 0 40 40" enable-background="new 0 0 40 40" xml:space="preserve">
<g>
	<g>
		<path fill="#FFFFFF" d="M21.604,10.633C20.754,9.879,20.033,9.26,20,9.26c-0.034,0-0.767,0.607-1.627,1.347L6.342,21.085
			c-0.856,0.745-1.557,2.278-1.557,3.407v12.957c0,1.127,0.934,2.051,2.076,2.051h6.974V27.055c0-1.99,1.648-3.621,3.662-3.621H22.5
			c2.016,0,3.662,1.631,3.662,3.621V39.5h6.977c1.141,0,2.073-0.924,2.073-2.051V24.5c0-1.128-0.7-2.66-1.558-3.406L21.604,10.633z"
			/>
	</g>
	<g>
		<path fill="#FFFFFF" d="M38.958,15.453l-3.701-3.219L23.012,1.58c-0.83-0.719-1.922-1.08-3.013-1.08
			c-1.092,0-2.185,0.361-3.013,1.08l-5.042,4.387v-1.02c0-0.955-0.719-1.732-1.606-1.732H6.371c-0.885,0-1.604,0.777-1.604,1.732
			v7.265l-0.025,0.021l-3.702,3.22c-1.657,1.442-1.258,4.915,0.649,4.281c0.873-0.291,2.149-1.395,3.052-2.206
			c0.211-0.189,0.406-0.368,0.564-0.51C8.633,14.03,18.8,5.279,18.8,5.279c0.294-0.256,0.732-0.404,1.199-0.404
			c0.466,0,0.903,0.148,1.199,0.405c0,0,10.014,8.926,13.489,11.738c0.164,0.132,0.358,0.301,0.567,0.484
			c0.914,0.8,2.175,1.945,3.054,2.232C40.221,20.358,40.613,16.895,38.958,15.453z"/>
	</g>
</g>
</svg>
