<?xml version="1.0" encoding="utf-8"?>
<!-- Generator: Adobe Illustrator 15.0.0, SVG Export Plug-In . SVG Version: 6.00 Build 0)  -->
<!DOCTYPE svg PUBLIC "-//W3C//DTD SVG 1.1//EN" "http://www.w3.org/Graphics/SVG/1.1/DTD/svg11.dtd">
<svg version="1.1" id="Camada_1" xmlns="http://www.w3.org/2000/svg" xmlns:xlink="http://www.w3.org/1999/xlink" x="0px" y="0px"
	 width="40px" height="40px" viewBox="0 0 40 40" enable-background="new 0 0 40 40" xml:space="preserve">
<g>
	<g>
		<path fill="#CFCFCF" d="M29.997,15c0-8.281-6.714-14.996-14.996-14.996S0.005,6.719,0.005,15c0,8.283,6.715,14.997,14.997,14.997
			S29.997,23.283,29.997,15z M15.001,26.248C8.799,26.248,3.754,21.203,3.754,15c0-6.202,5.045-11.248,11.248-11.248
			c6.202,0,11.247,5.046,11.247,11.248C26.248,21.203,21.203,26.248,15.001,26.248z"/>
		<path fill="#CFCFCF" d="M38.896,33.596l-9.175-9.175c-1.366,2.126-3.176,3.934-5.302,5.301l9.175,9.175
			c1.465,1.466,3.84,1.466,5.302,0C40.361,37.435,40.361,35.06,38.896,33.596z"/>
	</g>
</g>
</svg>
