<?xml version="1.0" encoding="utf-8"?>
<!-- Generator: Adobe Illustrator 15.0.0, SVG Export Plug-In . SVG Version: 6.00 Build 0)  -->
<!DOCTYPE svg PUBLIC "-//W3C//DTD SVG 1.1//EN" "http://www.w3.org/Graphics/SVG/1.1/DTD/svg11.dtd">
<svg version="1.1" id="Camada_1" xmlns="http://www.w3.org/2000/svg" xmlns:xlink="http://www.w3.org/1999/xlink" x="0px" y="0px"
	 width="40px" height="40px" viewBox="0 0 40 40" enable-background="new 0 0 40 40" xml:space="preserve">
<g>
	<path fill="#6EC656" d="M30.395,13.554c-0.765,0.339-1.587,0.568-2.449,0.671c0.88-0.529,1.558-1.364,1.875-2.36
		c-0.824,0.488-1.736,0.845-2.708,1.035c-0.778-0.829-1.887-1.347-3.113-1.347c-2.355,0-4.266,1.91-4.266,4.265
		c0,0.335,0.038,0.661,0.111,0.973c-3.545-0.178-6.687-1.875-8.791-4.457c-0.366,0.631-0.577,1.362-0.577,2.145
		c0,1.479,0.752,2.785,1.896,3.549c-0.698-0.021-1.355-0.214-1.93-0.535v0.055c0,2.066,1.469,3.79,3.42,4.182
		c-0.358,0.098-0.735,0.149-1.124,0.149c-0.274,0-0.543-0.026-0.803-0.076c0.543,1.694,2.118,2.928,3.983,2.962
		c-1.459,1.144-3.297,1.827-5.296,1.827c-0.343,0-0.683-0.021-1.017-0.062c1.888,1.209,4.129,1.916,6.54,1.916
		c7.843,0,12.132-6.498,12.132-12.134c0-0.185-0.005-0.369-0.012-0.554C29.099,15.16,29.82,14.41,30.395,13.554"/>
	<path fill="#6EC656" d="M40,40H0V0h40V40z M2.009,37.992h35.983V2.009H2.009V37.992z"/>
</g>
</svg>
