<?xml version="1.0" encoding="utf-8"?>
<!-- Generator: Adobe Illustrator 15.0.0, SVG Export Plug-In . SVG Version: 6.00 Build 0)  -->
<!DOCTYPE svg PUBLIC "-//W3C//DTD SVG 1.1//EN" "http://www.w3.org/Graphics/SVG/1.1/DTD/svg11.dtd">
<svg version="1.1" id="Camada_1" xmlns="http://www.w3.org/2000/svg" xmlns:xlink="http://www.w3.org/1999/xlink" x="0px" y="0px"
	 width="40px" height="40px" viewBox="0 0 40 40" enable-background="new 0 0 40 40" xml:space="preserve">
<g>
	<path fill="#6EC656" d="M18.215,9.688h-1.167l-0.788,3.028l-0.818-3.028h-1.216c0.242,0.714,0.497,1.432,0.739,2.148
		c0.371,1.076,0.603,1.886,0.706,2.439v3.123h1.154v-3.123L18.215,9.688z M21.301,15.538v-2.014c0-0.612-0.104-1.062-0.323-1.352
		c-0.288-0.393-0.693-0.59-1.214-0.59s-0.926,0.198-1.213,0.59c-0.223,0.29-0.327,0.74-0.327,1.352v2.014
		c0,0.611,0.104,1.063,0.327,1.352c0.287,0.392,0.692,0.588,1.213,0.588s0.926-0.196,1.214-0.588
		C21.196,16.601,21.301,16.149,21.301,15.538 M20.26,15.734c0,0.531-0.161,0.797-0.496,0.797c-0.336,0-0.499-0.266-0.499-0.797
		v-2.417c0-0.533,0.163-0.797,0.499-0.797c0.335,0,0.496,0.264,0.496,0.797V15.734z M25.152,17.397v-5.746h-1.041v4.393
		c-0.232,0.326-0.451,0.487-0.658,0.487c-0.142,0-0.222-0.081-0.245-0.244c-0.012-0.034-0.012-0.161-0.012-0.405v-4.23h-1.039v4.543
		c0,0.405,0.034,0.682,0.093,0.854c0.104,0.291,0.335,0.428,0.671,0.428c0.379,0,0.775-0.23,1.19-0.707v0.627H25.152z"/>
	<path fill="#6EC656" d="M21.886,23.231c-0.169,0-0.34,0.082-0.513,0.251v3.467c0.173,0.173,0.344,0.253,0.513,0.253
		c0.299,0,0.45-0.253,0.45-0.767v-2.427C22.336,23.495,22.185,23.231,21.886,23.231"/>
	<path fill="#6EC656" d="M25.71,23.231c-0.344,0-0.516,0.264-0.516,0.79v0.525h1.029v-0.525
		C26.224,23.495,26.052,23.231,25.71,23.231"/>
	<path fill="#6EC656" d="M28.229,20.341c-0.208-0.906-0.949-1.574-1.843-1.674c-2.114-0.237-4.254-0.237-6.384-0.237
		c-2.131,0-4.271,0-6.385,0.237c-0.893,0.1-1.635,0.768-1.842,1.674c-0.298,1.294-0.3,2.7-0.3,4.031c0,1.33,0,2.739,0.297,4.03
		c0.208,0.906,0.949,1.574,1.842,1.675c2.114,0.236,4.254,0.238,6.385,0.236c2.13,0.002,4.27,0,6.385-0.236
		c0.892-0.101,1.634-0.769,1.841-1.675c0.299-1.291,0.301-2.7,0.301-4.03C28.525,23.041,28.526,21.635,28.229,20.341 M16.339,21.504
		h-1.235v6.557h-1.146v-6.557h-1.213V20.43h3.594V21.504z M19.451,28.061H18.42v-0.62c-0.408,0.469-0.798,0.699-1.178,0.699
		c-0.331,0-0.561-0.135-0.663-0.424c-0.056-0.174-0.091-0.443-0.091-0.845v-4.498h1.029v4.187c0,0.243,0,0.367,0.009,0.401
		c0.025,0.16,0.104,0.24,0.242,0.24c0.207,0,0.424-0.159,0.651-0.481v-4.347h1.031V28.061z M23.365,26.355
		c0,0.525-0.035,0.903-0.103,1.146c-0.139,0.422-0.414,0.639-0.825,0.639c-0.366,0-0.721-0.205-1.065-0.63v0.551h-1.029V20.43h1.029
		v2.492c0.335-0.409,0.688-0.616,1.065-0.616c0.411,0,0.687,0.215,0.825,0.641c0.067,0.229,0.103,0.605,0.103,1.144V26.355z
		 M27.255,25.405h-2.061v1.008c0,0.526,0.172,0.788,0.525,0.788c0.253,0,0.402-0.138,0.461-0.412
		c0.011-0.057,0.021-0.284,0.021-0.698h1.053v0.15c0,0.331-0.014,0.562-0.023,0.664c-0.034,0.229-0.115,0.436-0.239,0.617
		c-0.285,0.412-0.709,0.617-1.247,0.617c-0.54,0-0.949-0.194-1.246-0.584c-0.22-0.283-0.331-0.732-0.331-1.336v-1.992
		c0-0.607,0.1-1.052,0.319-1.339c0.296-0.392,0.707-0.583,1.232-0.583c0.518,0,0.928,0.191,1.216,0.583
		c0.215,0.287,0.319,0.731,0.319,1.339V25.405z"/>
	<path fill="#6EC656" d="M40,40H0V0h40V40z M2.009,37.992h35.983V2.009H2.009V37.992z"/>
</g>
</svg>
