<?xml version="1.0" encoding="utf-8"?>
<!-- Generator: Adobe Illustrator 15.0.0, SVG Export Plug-In . SVG Version: 6.00 Build 0)  -->
<!DOCTYPE svg PUBLIC "-//W3C//DTD SVG 1.1//EN" "http://www.w3.org/Graphics/SVG/1.1/DTD/svg11.dtd">
<svg version="1.1" id="Camada_1" xmlns="http://www.w3.org/2000/svg" xmlns:xlink="http://www.w3.org/1999/xlink" x="0px" y="0px"
	 width="40px" height="40px" viewBox="0 0 40 40" enable-background="new 0 0 40 40" xml:space="preserve">
<g>
	<g>
		<ellipse fill="#555555" cx="4.957" cy="6.48" rx="4.333" ry="4.403"/>
		<ellipse fill="#555555" cx="4.957" cy="20" rx="4.333" ry="4.403"/>
		<ellipse fill="#555555" cx="4.957" cy="33.52" rx="4.333" ry="4.403"/>
		<g>
			<path fill="#555555" d="M38.821,2.622H13.215c-0.306,0-0.554,0.252-0.554,0.563v6.591c0,0.311,0.249,0.564,0.554,0.564h25.606
				c0.306,0,0.555-0.253,0.555-0.564V3.185C39.376,2.874,39.127,2.622,38.821,2.622z"/>
			<path fill="#555555" d="M38.821,16.142H13.215c-0.306,0-0.554,0.252-0.554,0.563v6.59c0,0.312,0.249,0.564,0.554,0.564h25.606
				c0.306,0,0.555-0.253,0.555-0.564v-6.59C39.376,16.394,39.127,16.142,38.821,16.142z"/>
			<path fill="#555555" d="M38.821,29.661H13.215c-0.306,0-0.554,0.253-0.554,0.563v6.591c0,0.311,0.249,0.564,0.554,0.564h25.606
				c0.306,0,0.555-0.254,0.555-0.564v-6.591C39.376,29.914,39.127,29.661,38.821,29.661z"/>
		</g>
	</g>
</g>
</svg>
