<?xml version="1.0" encoding="utf-8"?>
<!-- Generator: Adobe Illustrator 15.0.0, SVG Export Plug-In . SVG Version: 6.00 Build 0)  -->
<!DOCTYPE svg PUBLIC "-//W3C//DTD SVG 1.1//EN" "http://www.w3.org/Graphics/SVG/1.1/DTD/svg11.dtd">
<svg version="1.1" id="Layer_1" xmlns="http://www.w3.org/2000/svg" xmlns:xlink="http://www.w3.org/1999/xlink" x="0px" y="0px"
	 width="48.98px" height="40px" viewBox="-7.306 0 48.98 40" enable-background="new -7.306 0 48.98 40" xml:space="preserve">
<g>
	<path fill="#FFFFFF" d="M32.701,14.193V2.148c0-0.484-0.395-0.879-0.88-0.879h-2.855c-0.28,0-0.545,0.134-0.707,0.359
		c-7.594,10.354-12.087,10.354-16.431,10.354H3.973c-3.241,0-5.876,2.636-5.876,5.874v1.43c0,3.241,2.635,5.878,5.876,5.878h7.855
		c4.344,0,8.837,0,16.429,10.351c0.164,0.226,0.429,0.359,0.709,0.359h2.855c0.485,0,0.88-0.394,0.88-0.876V22.952
		c2.208-0.337,3.57-2.003,3.57-4.378C36.271,16.196,34.909,14.531,32.701,14.193 M34.513,18.574c0,1.456-0.608,2.33-1.812,2.599
		v-5.201C33.904,16.241,34.513,17.115,34.513,18.574 M30.945,3.027v31.091h-1.538c-7.229-9.722-12.038-10.66-16.702-10.707v-9.675
		c4.664-0.052,9.474-0.987,16.702-10.709H30.945z M3.973,13.738h6.977v9.669H3.973c-2.271,0-4.119-1.85-4.119-4.121v-1.43
		C-0.146,15.587,1.702,13.738,3.973,13.738"/>
	<path fill="#FFFFFF" d="M12.642,34.149l-0.572-0.43c-0.429-0.318-0.884-1.128-0.937-1.66l-0.573-5.72
		c-0.043-0.449-0.424-0.789-0.883-0.789c-0.025,0-0.05,0-0.079,0.003c-0.481,0.049-0.834,0.48-0.787,0.961l0.571,5.72
		c0.105,1.03,0.807,2.274,1.634,2.895l0.57,0.427c0.451,0.339,0.791,0.979,0.793,1.205c-0.018,0.047-0.203,0.214-0.551,0.214H6.114
		c-0.341,0-0.69-0.309-0.732-0.647L4.13,26.319c-0.058-0.475-0.486-0.82-0.979-0.764c-0.234,0.028-0.441,0.146-0.585,0.333
		c-0.146,0.184-0.206,0.415-0.179,0.646l1.252,10.01c0.153,1.227,1.242,2.186,2.476,2.186h5.713c1.272,0,2.307-0.874,2.307-1.949
		C14.135,35.921,13.492,34.789,12.642,34.149"/>
	<path fill="#FFFFFF" d="M3.258,17.31c0.236,0,0.458-0.093,0.622-0.259c0.42-0.42,0.813-0.455,0.806-0.455h4.285
		c0.484,0,0.878-0.395,0.878-0.879s-0.394-0.879-0.878-0.879H4.687c-0.111,0-1.104,0.026-2.048,0.973
		C2.472,15.976,2.38,16.196,2.38,16.43c0,0.234,0.091,0.455,0.257,0.621C2.803,17.217,3.023,17.31,3.258,17.31"/>
</g>
</svg>
