<?xml version="1.0" encoding="utf-8"?>
<!-- Generator: Adobe Illustrator 15.0.0, SVG Export Plug-In . SVG Version: 6.00 Build 0)  -->
<!DOCTYPE svg PUBLIC "-//W3C//DTD SVG 1.1//EN" "http://www.w3.org/Graphics/SVG/1.1/DTD/svg11.dtd">
<svg version="1.1" id="Layer_1" xmlns="http://www.w3.org/2000/svg" xmlns:xlink="http://www.w3.org/1999/xlink" x="0px" y="0px"
	 width="48.98px" height="40px" viewBox="-7.306 0 48.98 40" enable-background="new -7.306 0 48.98 40" xml:space="preserve">
<g>
	<path fill="#FFFFFF" d="M29.335,39.141H6.75c-0.531,0-0.964-0.434-0.964-0.965V1.716c0-0.531,0.433-0.964,0.964-0.964h22.585
		c0.532,0,0.965,0.433,0.965,0.964v36.46C30.3,38.707,29.867,39.141,29.335,39.141 M7.713,37.213h20.659V2.68H7.713V37.213z"/>
	<path fill="#FFFFFF" d="M36.677,39.141h-7.361c-0.532,0-0.964-0.434-0.964-0.965v-26.92c0-0.531,0.432-0.964,0.964-0.964h7.361
		c0.532,0,0.965,0.433,0.965,0.964v26.92C37.642,38.707,37.209,39.141,36.677,39.141 M30.279,37.213h5.435V12.22h-5.435V37.213z"/>
	<path fill="#FFFFFF" d="M6.75,39.141h-7.36c-0.532,0-0.964-0.434-0.964-0.965v-26.92c0-0.531,0.432-0.964,0.964-0.964h7.36
		c0.532,0,0.964,0.433,0.964,0.964v26.92C7.713,38.707,7.282,39.141,6.75,39.141 M0.354,37.213h5.433V12.22H0.354V37.213z"/>
	<path fill="#FFFFFF" d="M40.641,39.209H-6.274c-0.568,0-1.032-0.463-1.032-1.033c0-0.568,0.464-1.031,1.032-1.031h46.915
		c0.568,0,1.033,0.463,1.033,1.031C41.674,38.746,41.209,39.209,40.641,39.209"/>
	<path fill="#FFFFFF" d="M23.729,33.227H12.357c-0.336,0-0.608-0.273-0.608-0.609V30.09c0-0.334,0.272-0.604,0.608-0.604h11.371
		c0.335,0,0.606,0.27,0.606,0.604v2.527C24.335,32.953,24.063,33.227,23.729,33.227 M12.963,32.012h10.158v-1.314H12.963V32.012z"/>
	<path fill="#FFFFFF" d="M13.506,38.705c-0.291,0-0.529-0.238-0.529-0.529v-5.559c0-0.291,0.238-0.529,0.529-0.529
		s0.529,0.238,0.529,0.529v5.559C14.035,38.467,13.797,38.705,13.506,38.705"/>
	<path fill="#FFFFFF" d="M22.688,38.705c-0.291,0-0.529-0.238-0.529-0.529v-5.559c0-0.291,0.238-0.529,0.529-0.529
		s0.528,0.238,0.528,0.529v5.559C23.216,38.467,22.979,38.705,22.688,38.705"/>
	<path fill="#FFFFFF" d="M18.042,38.705c-0.292,0-0.53-0.238-0.53-0.529v-5.559c0-0.291,0.238-0.529,0.53-0.529
		c0.29,0,0.528,0.238,0.528,0.529v5.559C18.57,38.467,18.332,38.705,18.042,38.705"/>
	<path fill="#FFFFFF" d="M11.284,22.023c-0.335,0-0.606-0.271-0.606-0.607v-1.604c0-0.334,0.271-0.606,0.606-0.606h1.514
		c0.335,0,0.607,0.272,0.607,0.606c0,0.335-0.272,0.606-0.607,0.606H11.89v0.998C11.89,21.752,11.618,22.023,11.284,22.023"/>
	<path fill="#FFFFFF" d="M17.032,22.023c-0.336,0-0.605-0.271-0.605-0.607v-1.604c0-0.334,0.269-0.606,0.605-0.606h1.518
		c0.335,0,0.605,0.272,0.605,0.606c0,0.335-0.271,0.606-0.605,0.606h-0.913v0.998C17.637,21.752,17.368,22.023,17.032,22.023"/>
	<path fill="#FFFFFF" d="M22.688,22.023c-0.334,0-0.606-0.271-0.606-0.607v-1.604c0-0.334,0.272-0.606,0.606-0.606h1.519
		c0.333,0,0.604,0.272,0.604,0.606c0,0.335-0.271,0.606-0.604,0.606h-0.913v0.998C23.293,21.752,23.022,22.023,22.688,22.023"/>
	<path fill="#FFFFFF" d="M11.284,26.658c-0.335,0-0.606-0.271-0.606-0.607v-1.604c0-0.334,0.271-0.607,0.606-0.607h1.514
		c0.335,0,0.607,0.273,0.607,0.607s-0.272,0.605-0.607,0.605H11.89v0.998C11.89,26.387,11.618,26.658,11.284,26.658"/>
	<path fill="#FFFFFF" d="M17.032,26.658c-0.336,0-0.605-0.271-0.605-0.607v-1.604c0-0.334,0.269-0.607,0.605-0.607h1.518
		c0.335,0,0.605,0.273,0.605,0.607s-0.271,0.605-0.605,0.605h-0.913v0.998C17.637,26.387,17.368,26.658,17.032,26.658"/>
	<path fill="#FFFFFF" d="M22.688,26.658c-0.334,0-0.606-0.271-0.606-0.607v-1.604c0-0.334,0.272-0.607,0.606-0.607h1.519
		c0.333,0,0.604,0.273,0.604,0.607s-0.271,0.605-0.604,0.605h-0.913v0.998C23.293,26.387,23.022,26.658,22.688,26.658"/>
	<path fill="#FFFFFF" d="M11.284,12.578c-0.335,0-0.606-0.272-0.606-0.605v-1.607c0-0.334,0.271-0.606,0.606-0.606h1.514
		c0.335,0,0.607,0.272,0.607,0.606c0,0.336-0.272,0.606-0.607,0.606H11.89v1.001C11.89,12.306,11.618,12.578,11.284,12.578"/>
	<path fill="#FFFFFF" d="M17.032,12.578c-0.336,0-0.605-0.272-0.605-0.605v-1.607c0-0.334,0.269-0.606,0.605-0.606h1.518
		c0.335,0,0.605,0.272,0.605,0.606c0,0.336-0.271,0.606-0.605,0.606h-0.913v1.001C17.637,12.306,17.368,12.578,17.032,12.578"/>
	<path fill="#FFFFFF" d="M22.688,12.578c-0.334,0-0.606-0.272-0.606-0.605v-1.607c0-0.334,0.272-0.606,0.606-0.606h1.519
		c0.333,0,0.604,0.272,0.604,0.606c0,0.336-0.271,0.606-0.604,0.606h-0.913v1.001C23.293,12.306,23.022,12.578,22.688,12.578"/>
	<path fill="#FFFFFF" d="M11.284,17.212c-0.335,0-0.606-0.272-0.606-0.606V15c0-0.334,0.271-0.607,0.606-0.607h1.514
		c0.335,0,0.607,0.273,0.607,0.607c0,0.336-0.272,0.606-0.607,0.606H11.89v1C11.89,16.94,11.618,17.212,11.284,17.212"/>
	<path fill="#FFFFFF" d="M17.032,17.212c-0.336,0-0.605-0.272-0.605-0.606V15c0-0.334,0.269-0.607,0.605-0.607h1.518
		c0.335,0,0.605,0.273,0.605,0.607c0,0.336-0.271,0.606-0.605,0.606h-0.913v1C17.637,16.94,17.368,17.212,17.032,17.212"/>
	<path fill="#FFFFFF" d="M22.688,17.212c-0.334,0-0.606-0.272-0.606-0.606V15c0-0.334,0.272-0.607,0.606-0.607h1.519
		c0.333,0,0.604,0.273,0.604,0.607c0,0.336-0.271,0.606-0.604,0.606h-0.913v1C23.293,16.94,23.022,17.212,22.688,17.212"/>
	<path fill="#FFFFFF" d="M11.284,7.766c-0.335,0-0.606-0.272-0.606-0.606V5.555c0-0.335,0.271-0.607,0.606-0.607h1.514
		c0.335,0,0.607,0.272,0.607,0.607s-0.272,0.606-0.607,0.606H11.89V7.16C11.89,7.494,11.618,7.766,11.284,7.766"/>
	<path fill="#FFFFFF" d="M17.032,7.766c-0.336,0-0.605-0.272-0.605-0.606V5.555c0-0.335,0.269-0.607,0.605-0.607h1.518
		c0.335,0,0.605,0.272,0.605,0.607s-0.271,0.606-0.605,0.606h-0.913V7.16C17.637,7.494,17.368,7.766,17.032,7.766"/>
	<path fill="#FFFFFF" d="M22.688,7.766c-0.334,0-0.606-0.272-0.606-0.606V5.555c0-0.335,0.272-0.607,0.606-0.607h1.519
		c0.333,0,0.604,0.272,0.604,0.607s-0.271,0.606-0.604,0.606h-0.913V7.16C23.293,7.494,23.022,7.766,22.688,7.766"/>
</g>
</svg>
