<?xml version="1.0" encoding="utf-8"?>
<!-- Generator: Adobe Illustrator 15.0.0, SVG Export Plug-In . SVG Version: 6.00 Build 0)  -->
<!DOCTYPE svg PUBLIC "-//W3C//DTD SVG 1.1//EN" "http://www.w3.org/Graphics/SVG/1.1/DTD/svg11.dtd">
<svg version="1.1" id="Layer_1" xmlns="http://www.w3.org/2000/svg" xmlns:xlink="http://www.w3.org/1999/xlink" x="0px" y="0px"
	 width="48.98px" height="40px" viewBox="-7.306 0 48.98 40" enable-background="new -7.306 0 48.98 40" xml:space="preserve">
<rect x="-0.034" y="16.342" fill-rule="evenodd" clip-rule="evenodd" fill="#FFFFFF" width="12.475" height="13.926"/>
<rect x="-0.063" y="10.391" fill-rule="evenodd" clip-rule="evenodd" fill="#FFFFFF" width="28.858" height="2.049"/>
<rect x="16.288" y="16.369" fill-rule="evenodd" clip-rule="evenodd" fill="#FFFFFF" width="12.51" height="2.04"/>
<rect x="16.288" y="22.32" fill-rule="evenodd" clip-rule="evenodd" fill="#FFFFFF" width="12.465" height="2.032"/>
<rect x="16.285" y="28.229" fill-rule="evenodd" clip-rule="evenodd" fill="#FFFFFF" width="9.536" height="2.047"/>
<path fill-rule="evenodd" clip-rule="evenodd" fill="#FFFFFF" d="M40.761,14.427l-0.01-6.763c0-0.061-0.025-0.149-0.062-0.269
	c0-0.006-0.003-0.015-0.006-0.021h-5.789v-6H-6.095v33.778c1.042,2.918,3.083,4.222,6.613,4.222l0.185-0.003
	c4.5-0.055,9.436-0.082,15.537-0.082c3.114,0,6.225,0.006,9.334,0.016c3.111,0.006,6.221,0.012,9.332,0.012h0.874
	c3.126,0,4.934-1.731,4.954-4.745C40.784,27.854,40.772,21.027,40.761,14.427 M0.754,37.052c-3.508,0-4.579-1.05-4.581-4.489
	C-3.832,26.125-3.83,19.686-3.83,13.249l0.001-9.515h36.35l0.006,0.35c0.05,4.677,0.037,9.42,0.024,14.008
	c-0.013,6.077-0.03,12.362,0.102,18.604l0.006,0.359L0.754,37.052z M38.958,34.786l-0.052,0.087
	c-0.732,1.972-1.659,1.998-2.631,1.998c-0.699,0-1.378,0.046-1.396,0.04l-0.214-0.095V9.255h4.292V34.786z"/>
</svg>
