<?xml version="1.0" encoding="utf-8"?>
<!-- Generator: Adobe Illustrator 15.0.0, SVG Export Plug-In . SVG Version: 6.00 Build 0)  -->
<!DOCTYPE svg PUBLIC "-//W3C//DTD SVG 1.1//EN" "http://www.w3.org/Graphics/SVG/1.1/DTD/svg11.dtd">
<svg version="1.1" id="Layer_1" xmlns="http://www.w3.org/2000/svg" xmlns:xlink="http://www.w3.org/1999/xlink" x="0px" y="0px"
	 width="48.98px" height="40px" viewBox="-7.306 0 48.98 40" enable-background="new -7.306 0 48.98 40" xml:space="preserve">
<path fill="#FFFFFF" d="M17.866,2.72c5.782,0,10.663,3.221,10.663,9.335c0,3.601-1.374,5.782-5.876,9.334
	c-1.469,1.137-1.849,2.227-1.849,3.27v1.373h-7.108v-2.085c0-1.895,0.475-3.126,1.66-4.262c3.504-3.365,6.063-4.93,6.063-7.109
	c0-2.084-1.468-3.315-3.412-3.315c-2.935,0-4.5,1.895-4.688,4.215l-7.297-0.474C6.686,6.322,11.281,2.72,17.866,2.72 M17.251,28.687
	c2.417,0,4.36,1.943,4.36,4.361c0,2.415-1.943,4.358-4.36,4.358c-2.415,0-4.358-1.943-4.358-4.358
	C12.893,30.63,14.836,28.687,17.251,28.687 M17.866,0.852c-7.72,0-12.971,4.585-13.703,11.966l-0.19,1.924l1.927,0.125l7.299,0.474
	l1.831,0.119l0.149-1.832c0.077-0.933,0.544-2.5,2.829-2.5c0.706,0,1.547,0.25,1.547,1.449c0,0.802-1.339,1.995-3.034,3.508
	c-0.732,0.654-1.563,1.396-2.457,2.255c-1.544,1.48-2.234,3.211-2.234,5.609v2.085v1.867h1.867h0.052
	c-1.643,1.124-2.724,3.01-2.724,5.148c0,3.431,2.793,6.226,6.227,6.226s6.227-2.795,6.227-6.226c0-2.139-1.081-4.024-2.724-5.148
	h0.051h1.868v-1.867v-1.373c0-0.323,0-0.924,1.122-1.793c4.384-3.46,6.601-6.077,6.601-10.811
	C30.396,5.458,25.243,0.852,17.866,0.852"/>
</svg>
