<?xml version="1.0" encoding="utf-8"?>
<!-- Generator: Adobe Illustrator 15.0.0, SVG Export Plug-In . SVG Version: 6.00 Build 0)  -->
<!DOCTYPE svg PUBLIC "-//W3C//DTD SVG 1.1//EN" "http://www.w3.org/Graphics/SVG/1.1/DTD/svg11.dtd">
<svg version="1.1" id="Layer_1" xmlns="http://www.w3.org/2000/svg" xmlns:xlink="http://www.w3.org/1999/xlink" x="0px" y="0px"
	 width="48.98px" height="40px" viewBox="-7.306 0 48.98 40" enable-background="new -7.306 0 48.98 40" xml:space="preserve">
<g>
	<path fill="#FFFFFF" d="M9.956,24.773c2.24,0,4.06-1.82,4.06-4.061c0-2.238-1.819-4.059-4.06-4.059
		c-2.239,0-4.059,1.821-4.059,4.059C5.897,22.953,7.717,24.773,9.956,24.773 M9.956,18.42c1.268,0,2.299,1.029,2.299,2.293
		c0,1.266-1.031,2.297-2.299,2.297c-1.264,0-2.294-1.031-2.294-2.297C7.662,19.449,8.692,18.42,9.956,18.42"/>
	<path fill="#FFFFFF" d="M9.956,25.393c-4.678,0-8.485,3.758-8.665,8.553l-0.032,0.914h17.396l-0.031-0.914
		C18.446,29.15,14.638,25.393,9.956,25.393 M9.956,27.158c3.381,0,6.26,2.531,6.811,5.936H3.148
		C3.699,29.689,6.577,27.158,9.956,27.158"/>
	<rect x="21.455" y="18.64" fill="#FFFFFF" width="9.245" height="1.765"/>
	<rect x="21.455" y="23.088" fill="#FFFFFF" width="9.245" height="1.766"/>
	<path fill="#FFFFFF" d="M33.065,10.781h-11.9V0.852h-8.039v9.929H1.302c-1.801,0-3.266,1.465-3.266,3.265v21.837
		c0,1.801,1.465,3.266,3.266,3.266h31.764c1.802,0,3.266-1.465,3.266-3.266V14.046C36.331,12.212,34.898,10.781,33.065,10.781
		 M14.892,10.781V2.617H19.4v10.148h-4.509V10.781z M33.065,37.385H1.302c-0.829,0-1.5-0.676-1.5-1.502V14.046
		c0-0.829,0.671-1.501,1.5-1.501h11.824v1.984h8.039h0.077v-1.984h11.823c0.854,0,1.502,0.646,1.502,1.501v21.837
		C34.567,36.709,33.893,37.385,33.065,37.385"/>
</g>
</svg>
