<?xml version="1.0" encoding="utf-8"?>
<!-- Generator: Adobe Illustrator 15.0.0, SVG Export Plug-In . SVG Version: 6.00 Build 0)  -->
<!DOCTYPE svg PUBLIC "-//W3C//DTD SVG 1.1//EN" "http://www.w3.org/Graphics/SVG/1.1/DTD/svg11.dtd">
<svg version="1.1" id="Layer_1" xmlns="http://www.w3.org/2000/svg" xmlns:xlink="http://www.w3.org/1999/xlink" x="0px" y="0px"
	 width="46px" height="44.625px" viewBox="1.99 -4.625 46 44.625" enable-background="new 1.99 -4.625 46 44.625"
	 xml:space="preserve">
<path fill="#FFFFFF" d="M38.363,39.594v-7.725h-3.396v7.725H2.656l0.086-22.881L14.73,5.988l0.035,8.911l10.028-8.977l0.038,9.039
	l10.094-9.039l0.037,10.25h3.4v-20.39h7.969v0.988v-0.988h0.986l0.006,43.813H38.363z M40.338,29.896v7.725h5.01L45.344-2.244
	h-5.006v20.389h-7.342l-0.027-7.822l-10.097,9.04l-0.034-9.04l-10.03,8.983l-0.037-8.919l-8.059,7.218L4.638,37.62h28.355v-7.725
	H40.338z M12.796,29.701v-7.032H25.22v6.045v0.987H12.796z M24.233,28.714v-0.987V28.714z M14.773,27.727h8.474v-3.085h-8.474
	V27.727z"/>
</svg>
