<?xml version="1.0" encoding="utf-8"?>
<!-- Generator: Adobe Illustrator 15.0.0, SVG Export Plug-In . SVG Version: 6.00 Build 0)  -->
<!DOCTYPE svg PUBLIC "-//W3C//DTD SVG 1.1//EN" "http://www.w3.org/Graphics/SVG/1.1/DTD/svg11.dtd">
<svg version="1.1" id="Camada_1" xmlns="http://www.w3.org/2000/svg" xmlns:xlink="http://www.w3.org/1999/xlink" x="0px" y="0px"
	 width="229.992px" height="53.797px" viewBox="0 0 229.992 53.797" enable-background="new 0 0 229.992 53.797"
	 xml:space="preserve">
<rect fill="#FFFFFF" width="229.992" height="53.797"/>
<rect x="53.565" y="6.007" fill="#EDC015" width="170.214" height="42.121"/>
<rect x="5.363" y="6.007" fill="#008B65" width="42.119" height="42.121"/>
<g>
	<g>
		<defs>
			<rect id="SVGID_1_" width="229.992" height="53.797"/>
		</defs>
		<clipPath id="SVGID_2_">
			<use xlink:href="#SVGID_1_"  overflow="visible"/>
		</clipPath>
		<path clip-path="url(#SVGID_2_)" fill="#FFFFFF" d="M31.355,15.142c-0.094,0.184-0.829,1.446-0.474,2.401
			c0.09,0.244,1.194,0.474,1.528-0.492l1.384-0.012c-0.289,1.04-1.31,1.671-2.535,1.633c-0.432-0.01-2.444,0.134-1.803-2.421
			c0.112-0.451,0.272-0.83,0.467-1.151c0.195-0.316,0.866-1.3,2.55-1.32c2.204-0.023,1.831,1.329,1.773,1.585l-1.383-0.013
			C33.035,14.486,31.667,14.544,31.355,15.142"/>
	</g>
	<g>
		<defs>
			<rect id="SVGID_3_" width="229.992" height="53.797"/>
		</defs>
		<clipPath id="SVGID_4_">
			<use xlink:href="#SVGID_3_"  overflow="visible"/>
		</clipPath>
		<polygon clip-path="url(#SVGID_4_)" fill="#FFFFFF" points="23.087,13.871 22.837,14.833 20.855,14.833 20.563,15.904 
			22.392,15.904 22.146,16.812 20.319,16.812 19.861,18.544 18.536,18.544 19.782,13.871 		"/>
	</g>
	<g>
		<defs>
			<rect id="SVGID_5_" width="229.992" height="53.797"/>
		</defs>
		<clipPath id="SVGID_6_">
			<use xlink:href="#SVGID_5_"  overflow="visible"/>
		</clipPath>
		<polygon clip-path="url(#SVGID_6_)" fill="#FFFFFF" points="25.071,13.871 23.824,18.544 22.501,18.544 23.747,13.871 		"/>
	</g>
	<g>
		<defs>
			<rect id="SVGID_7_" width="229.992" height="53.797"/>
		</defs>
		<clipPath id="SVGID_8_">
			<use xlink:href="#SVGID_7_"  overflow="visible"/>
		</clipPath>
		<polygon clip-path="url(#SVGID_8_)" fill="#FFFFFF" points="29.444,13.871 29.19,14.833 26.956,14.833 26.71,15.751 
			28.796,15.751 28.534,16.717 26.446,16.717 26.206,17.628 28.44,17.628 28.197,18.544 24.638,18.544 25.883,13.871 		"/>
	</g>
	<g>
		<defs>
			<rect id="SVGID_9_" width="229.992" height="53.797"/>
		</defs>
		<clipPath id="SVGID_10_">
			<use xlink:href="#SVGID_9_"  overflow="visible"/>
		</clipPath>
		<path clip-path="url(#SVGID_10_)" fill="#FFFFFF" d="M28.791,24.269c-0.245,0.898,0.857,0.705,1.099,0.547
			c0.562-0.37,0.185-0.71-0.061-0.812c-0.221-0.09-0.642-0.158-1.148-0.339c-0.95-0.338-0.748-1.183-0.384-1.777
			c0.309-0.505,1.054-0.737,1.341-0.8c1.117-0.237,2.017,0.033,2.2,0.367c0.074,0.136,0.253,0.413,0.099,1.029l-1.331-0.014
			c0.1-0.316-0.156-0.444-0.228-0.466c-0.528-0.153-0.815,0.182-0.85,0.228c-0.243,0.331,0.053,0.558,0.291,0.599
			c0.194,0.035,1.057,0.161,1.563,0.558c0.124,0.096,0.615,0.593-0.137,1.67c-0.16,0.23-0.785,0.851-2.13,0.851
			c-0.343,0-0.973,0.023-1.439-0.405c-0.372-0.338-0.285-0.955-0.228-1.223l0.005-0.013H28.791z"/>
	</g>
	<g>
		<defs>
			<rect id="SVGID_11_" width="229.992" height="53.797"/>
		</defs>
		<clipPath id="SVGID_12_">
			<use xlink:href="#SVGID_11_"  overflow="visible"/>
		</clipPath>
		<path clip-path="url(#SVGID_12_)" fill="#FFFFFF" d="M19.769,24.269c-0.242,0.898,0.861,0.705,1.102,0.547
			c0.563-0.37,0.185-0.71-0.063-0.812c-0.219-0.09-0.642-0.158-1.148-0.339c-0.945-0.338-0.749-1.183-0.385-1.777
			c0.311-0.505,1.056-0.737,1.345-0.8c1.114-0.237,2.016,0.033,2.199,0.367c0.074,0.136,0.256,0.413,0.096,1.029l-1.328-0.014
			c0.103-0.316-0.158-0.444-0.227-0.466c-0.53-0.153-0.816,0.182-0.851,0.228c-0.243,0.331,0.053,0.558,0.291,0.599
			c0.194,0.035,1.057,0.161,1.563,0.558c0.125,0.096,0.615,0.593-0.137,1.67c-0.162,0.23-0.784,0.851-2.13,0.851
			c-0.345,0-0.973,0.023-1.441-0.405c-0.368-0.338-0.283-0.955-0.228-1.223l0.008-0.013H19.769z"/>
	</g>
	<g>
		<defs>
			<rect id="SVGID_13_" width="229.992" height="53.797"/>
		</defs>
		<clipPath id="SVGID_14_">
			<use xlink:href="#SVGID_13_"  overflow="visible"/>
		</clipPath>
		<polygon clip-path="url(#SVGID_14_)" fill="#FFFFFF" points="27.704,21.109 27.453,22.072 25.22,22.072 24.974,22.987 
			27.06,22.987 26.794,23.958 24.71,23.958 24.472,24.868 26.704,24.868 26.458,25.785 22.903,25.785 24.147,21.109 		"/>
	</g>
	<g>
		<defs>
			<rect id="SVGID_15_" width="229.992" height="53.797"/>
		</defs>
		<clipPath id="SVGID_16_">
			<use xlink:href="#SVGID_15_"  overflow="visible"/>
		</clipPath>
		<polygon clip-path="url(#SVGID_16_)" fill="#FFFFFF" points="34.464,21.109 33.218,25.785 31.897,25.785 33.142,21.109 		"/>
	</g>
	<g>
		<defs>
			<rect id="SVGID_17_" width="229.992" height="53.797"/>
		</defs>
		<clipPath id="SVGID_18_">
			<use xlink:href="#SVGID_17_"  overflow="visible"/>
		</clipPath>
		<path clip-path="url(#SVGID_18_)" fill="#FFFFFF" d="M16.729,31.495c-0.244,0.899,0.858,0.705,1.1,0.549
			c0.56-0.371,0.183-0.709-0.063-0.812c-0.22-0.092-0.64-0.159-1.146-0.339c-0.948-0.342-0.75-1.186-0.387-1.777
			c0.31-0.507,1.055-0.738,1.344-0.8c1.117-0.237,2.016,0.033,2.199,0.363c0.074,0.141,0.257,0.417,0.096,1.03l-1.327-0.014
			c0.101-0.314-0.156-0.443-0.228-0.464c-0.529-0.153-0.817,0.179-0.852,0.228c-0.242,0.332,0.053,0.558,0.291,0.599
			c0.194,0.032,1.057,0.163,1.565,0.557c0.123,0.099,0.614,0.595-0.139,1.673c-0.158,0.23-0.785,0.849-2.13,0.849
			c-0.341,0-0.972,0.026-1.438-0.403c-0.371-0.337-0.283-0.955-0.229-1.223l0.008-0.014h1.336V31.495z"/>
	</g>
	<g>
		<defs>
			<rect id="SVGID_19_" width="229.992" height="53.797"/>
		</defs>
		<clipPath id="SVGID_20_">
			<use xlink:href="#SVGID_19_"  overflow="visible"/>
		</clipPath>
		<polygon clip-path="url(#SVGID_20_)" fill="#FFFFFF" points="24.639,28.344 24.386,29.307 22.154,29.307 21.908,30.223 
			23.992,30.223 23.728,31.191 21.644,31.191 21.406,32.103 23.636,32.103 23.394,33.018 19.834,33.018 21.079,28.344 		"/>
	</g>
	<g>
		<defs>
			<rect id="SVGID_21_" width="229.992" height="53.797"/>
		</defs>
		<clipPath id="SVGID_22_">
			<use xlink:href="#SVGID_21_"  overflow="visible"/>
		</clipPath>
		<polygon clip-path="url(#SVGID_22_)" fill="#FFFFFF" points="27.229,28.344 27.884,31.797 28.81,28.344 29.979,28.344 
			28.729,33.018 26.899,33.018 26.257,29.512 25.324,33.018 24.155,33.018 25.399,28.344 		"/>
	</g>
	<g>
		<defs>
			<rect id="SVGID_23_" width="229.992" height="53.797"/>
		</defs>
		<clipPath id="SVGID_24_">
			<use xlink:href="#SVGID_23_"  overflow="visible"/>
		</clipPath>
		<path clip-path="url(#SVGID_24_)" fill="#FFFFFF" d="M33.838,28.344l0.584,4.674h-1.468l-0.085-0.864h-1.827l-0.529,0.864h-1.376
			l3.125-4.674H33.838z M32.726,29.307l-1.121,1.885h1.168L32.726,29.307z"/>
	</g>
	<g>
		<defs>
			<rect id="SVGID_25_" width="229.992" height="53.797"/>
		</defs>
		<clipPath id="SVGID_26_">
			<use xlink:href="#SVGID_25_"  overflow="visible"/>
		</clipPath>
		<polygon clip-path="url(#SVGID_26_)" fill="#FFFFFF" points="37.506,28.344 36.261,33.018 34.935,33.018 36.183,28.344 		"/>
	</g>
	<g>
		<defs>
			<rect id="SVGID_27_" width="229.992" height="53.797"/>
		</defs>
		<clipPath id="SVGID_28_">
			<use xlink:href="#SVGID_27_"  overflow="visible"/>
		</clipPath>
		<polygon clip-path="url(#SVGID_28_)" fill="#FFFFFF" points="23.93,35.568 22.683,40.243 21.36,40.243 22.604,35.568 		"/>
	</g>
	<g>
		<defs>
			<rect id="SVGID_29_" width="229.992" height="53.797"/>
		</defs>
		<clipPath id="SVGID_30_">
			<use xlink:href="#SVGID_29_"  overflow="visible"/>
		</clipPath>
		<polygon clip-path="url(#SVGID_30_)" fill="#FFFFFF" points="28.298,35.568 28.048,36.528 25.814,36.528 25.569,37.447 
			27.655,37.447 27.39,38.417 25.302,38.417 25.064,39.325 27.298,39.325 27.053,40.243 23.497,40.243 24.742,35.568 		"/>
	</g>
	<g>
		<defs>
			<rect id="SVGID_31_" width="229.992" height="53.797"/>
		</defs>
		<clipPath id="SVGID_32_">
			<use xlink:href="#SVGID_31_"  overflow="visible"/>
		</clipPath>
		<polygon clip-path="url(#SVGID_32_)" fill="#FFFFFF" points="30.384,35.568 29.398,39.272 31.482,39.272 31.224,40.243 
			27.815,40.243 29.062,35.568 		"/>
	</g>
	<g>
		<defs>
			<rect id="SVGID_33_" width="229.992" height="53.797"/>
		</defs>
		<clipPath id="SVGID_34_">
			<use xlink:href="#SVGID_33_"  overflow="visible"/>
		</clipPath>
		<rect x="11.33" y="40.888" clip-path="url(#SVGID_34_)" fill="#EDC015" width="30.187" height="1.26"/>
	</g>
	<g>
		<defs>
			<rect id="SVGID_35_" width="229.992" height="53.797"/>
		</defs>
		<clipPath id="SVGID_36_">
			<use xlink:href="#SVGID_35_"  overflow="visible"/>
		</clipPath>
		<rect x="11.33" y="33.663" clip-path="url(#SVGID_36_)" fill="#EDC015" width="30.187" height="1.26"/>
	</g>
	<g>
		<defs>
			<rect id="SVGID_37_" width="229.992" height="53.797"/>
		</defs>
		<clipPath id="SVGID_38_">
			<use xlink:href="#SVGID_37_"  overflow="visible"/>
		</clipPath>
		<rect x="11.33" y="26.437" clip-path="url(#SVGID_38_)" fill="#EDC015" width="30.187" height="1.26"/>
	</g>
	<g>
		<defs>
			<rect id="SVGID_39_" width="229.992" height="53.797"/>
		</defs>
		<clipPath id="SVGID_40_">
			<use xlink:href="#SVGID_39_"  overflow="visible"/>
		</clipPath>
		<rect x="11.33" y="19.209" clip-path="url(#SVGID_40_)" fill="#EDC015" width="30.187" height="1.262"/>
	</g>
	<g>
		<defs>
			<rect id="SVGID_41_" width="229.992" height="53.797"/>
		</defs>
		<clipPath id="SVGID_42_">
			<use xlink:href="#SVGID_41_"  overflow="visible"/>
		</clipPath>
		<rect x="11.33" y="11.983" clip-path="url(#SVGID_42_)" fill="#EDC015" width="30.187" height="1.262"/>
	</g>
	<g>
		<defs>
			<rect id="SVGID_43_" width="229.992" height="53.797"/>
		</defs>
		<clipPath id="SVGID_44_">
			<use xlink:href="#SVGID_43_"  overflow="visible"/>
		</clipPath>
		<rect x="53.566" y="40.888" clip-path="url(#SVGID_44_)" fill="#FFFFFF" width="7.531" height="1.26"/>
	</g>
	<g>
		<defs>
			<rect id="SVGID_45_" width="229.992" height="53.797"/>
		</defs>
		<clipPath id="SVGID_46_">
			<use xlink:href="#SVGID_45_"  overflow="visible"/>
		</clipPath>
		<rect x="53.566" y="33.663" clip-path="url(#SVGID_46_)" fill="#FFFFFF" width="7.531" height="1.26"/>
	</g>
	<g>
		<defs>
			<rect id="SVGID_47_" width="229.992" height="53.797"/>
		</defs>
		<clipPath id="SVGID_48_">
			<use xlink:href="#SVGID_47_"  overflow="visible"/>
		</clipPath>
		<rect x="53.566" y="26.437" clip-path="url(#SVGID_48_)" fill="#FFFFFF" width="7.531" height="1.26"/>
	</g>
	<g>
		<defs>
			<rect id="SVGID_49_" width="229.992" height="53.797"/>
		</defs>
		<clipPath id="SVGID_50_">
			<use xlink:href="#SVGID_49_"  overflow="visible"/>
		</clipPath>
		<rect x="53.566" y="19.209" clip-path="url(#SVGID_50_)" fill="#FFFFFF" width="7.531" height="1.262"/>
	</g>
	<g>
		<defs>
			<rect id="SVGID_51_" width="229.992" height="53.797"/>
		</defs>
		<clipPath id="SVGID_52_">
			<use xlink:href="#SVGID_51_"  overflow="visible"/>
		</clipPath>
		<rect x="53.566" y="11.983" clip-path="url(#SVGID_52_)" fill="#FFFFFF" width="7.531" height="1.262"/>
	</g>
	<g>
		<defs>
			<rect id="SVGID_53_" width="229.992" height="53.797"/>
		</defs>
		<clipPath id="SVGID_54_">
			<use xlink:href="#SVGID_53_"  overflow="visible"/>
		</clipPath>
		<rect x="216.247" y="40.888" clip-path="url(#SVGID_54_)" fill="#FFFFFF" width="7.532" height="1.26"/>
	</g>
	<g>
		<defs>
			<rect id="SVGID_55_" width="229.992" height="53.797"/>
		</defs>
		<clipPath id="SVGID_56_">
			<use xlink:href="#SVGID_55_"  overflow="visible"/>
		</clipPath>
		<rect x="216.247" y="33.663" clip-path="url(#SVGID_56_)" fill="#FFFFFF" width="7.532" height="1.26"/>
	</g>
	<g>
		<defs>
			<rect id="SVGID_57_" width="229.992" height="53.797"/>
		</defs>
		<clipPath id="SVGID_58_">
			<use xlink:href="#SVGID_57_"  overflow="visible"/>
		</clipPath>
		<rect x="216.247" y="26.437" clip-path="url(#SVGID_58_)" fill="#FFFFFF" width="7.532" height="1.26"/>
	</g>
	<g>
		<defs>
			<rect id="SVGID_59_" width="229.992" height="53.797"/>
		</defs>
		<clipPath id="SVGID_60_">
			<use xlink:href="#SVGID_59_"  overflow="visible"/>
		</clipPath>
		<rect x="216.247" y="19.209" clip-path="url(#SVGID_60_)" fill="#FFFFFF" width="7.532" height="1.262"/>
	</g>
	<g>
		<defs>
			<rect id="SVGID_61_" width="229.992" height="53.797"/>
		</defs>
		<clipPath id="SVGID_62_">
			<use xlink:href="#SVGID_61_"  overflow="visible"/>
		</clipPath>
		<rect x="216.247" y="11.983" clip-path="url(#SVGID_62_)" fill="#FFFFFF" width="7.532" height="1.262"/>
	</g>
	<g>
		<defs>
			<rect id="SVGID_63_" width="229.992" height="53.797"/>
		</defs>
		<clipPath id="SVGID_64_">
			<use xlink:href="#SVGID_63_"  overflow="visible"/>
		</clipPath>
		<path clip-path="url(#SVGID_64_)" fill="#FFFFFF" d="M76.115,32.344c-1.575,5.803,5.558,4.557,7.109,3.529
			c3.625-2.389,1.196-4.564-0.401-5.232c-1.419-0.592-4.133-1.02-7.402-2.189c-6.123-2.194-4.845-7.644-2.494-11.477
			c2.002-3.262,6.813-4.759,8.677-5.156c7.206-1.547,13.029,0.202,14.196,2.355c0.481,0.886,1.642,2.669,0.629,6.645l-8.58-0.085
			c0.653-2.046-1.012-2.872-1.47-3.006c-3.418-1-5.266,1.168-5.49,1.467c-1.58,2.134,0.338,3.596,1.875,3.865
			c1.245,0.215,6.823,1.042,10.089,3.606c0.808,0.631,3.982,3.823-0.884,10.792c-1.037,1.483-5.07,5.485-13.753,5.485
			c-2.215,0-6.284,0.153-9.295-2.606c-2.391-2.188-1.836-6.17-1.473-7.908l0.045-0.083L76.115,32.344L76.115,32.344z"/>
	</g>
	<g>
		<defs>
			<rect id="SVGID_65_" width="229.992" height="53.797"/>
		</defs>
		<clipPath id="SVGID_66_">
			<use xlink:href="#SVGID_65_"  overflow="visible"/>
		</clipPath>
		<polygon clip-path="url(#SVGID_66_)" fill="#FFFFFF" points="126.762,11.993 125.139,18.203 110.711,18.203 109.124,24.125 
			122.589,24.125 120.882,30.379 107.413,30.379 105.872,36.26 120.296,36.26 118.714,42.181 95.741,42.181 103.786,11.993 		"/>
	</g>
	<g>
		<defs>
			<rect id="SVGID_67_" width="229.992" height="53.797"/>
		</defs>
		<clipPath id="SVGID_68_">
			<use xlink:href="#SVGID_67_"  overflow="visible"/>
		</clipPath>
		<polygon clip-path="url(#SVGID_68_)" fill="#FFFFFF" points="142.879,11.993 147.134,34.299 153.098,11.993 160.645,11.993 
			152.592,42.181 140.754,42.181 136.627,19.545 130.582,42.181 123.035,42.181 131.082,11.993 		"/>
	</g>
	<g>
		<defs>
			<rect id="SVGID_69_" width="229.992" height="53.797"/>
		</defs>
		<clipPath id="SVGID_70_">
			<use xlink:href="#SVGID_69_"  overflow="visible"/>
		</clipPath>
		<path clip-path="url(#SVGID_70_)" fill="#FFFFFF" d="M186.346,11.993l3.793,30.189h-9.504l-0.542-5.592H168.29l-3.42,5.592h-8.876
			l20.177-30.189H186.346z M179.171,18.203l-7.253,12.176h7.548L179.171,18.203z"/>
	</g>
	<g>
		<defs>
			<rect id="SVGID_71_" width="229.992" height="53.797"/>
		</defs>
		<clipPath id="SVGID_72_">
			<use xlink:href="#SVGID_71_"  overflow="visible"/>
		</clipPath>
		<polygon clip-path="url(#SVGID_72_)" fill="#FFFFFF" points="210.243,11.993 202.197,42.181 193.65,42.181 201.697,11.993 		"/>
	</g>
</g>
</svg>
