<?xml version="1.0" encoding="utf-8"?>
<!-- Generator: Adobe Illustrator 15.0.0, SVG Export Plug-In . SVG Version: 6.00 Build 0)  -->
<!DOCTYPE svg PUBLIC "-//W3C//DTD SVG 1.1//EN" "http://www.w3.org/Graphics/SVG/1.1/DTD/svg11.dtd">
<svg version="1.1" id="Camada_1" xmlns="http://www.w3.org/2000/svg" xmlns:xlink="http://www.w3.org/1999/xlink" x="0px" y="0px"
	 width="47.444px" height="40.143px" viewBox="0 0 47.444 40.143" enable-background="new 0 0 47.444 40.143" xml:space="preserve">
<path fill="#FFFFFF" d="M24.641,39.345c-10.627,0-19.271-8.646-19.271-19.273c0-10.627,8.644-19.273,19.271-19.273
	c10.629,0,19.273,8.646,19.273,19.273C43.914,30.699,35.27,39.345,24.641,39.345 M24.641,2.184c-9.864,0-17.89,8.024-17.89,17.888
	s8.025,17.888,17.89,17.888c9.865,0,17.887-8.024,17.887-17.888S34.506,2.184,24.641,2.184"/>
<path fill="#FFFFFF" d="M30.622,9.524l4.565,4.565l-5.982,5.982l5.982,5.983l-4.565,4.563l-5.979-5.983l-5.985,5.983l-4.565-4.563
	l5.983-5.983l-5.983-5.984l4.565-4.563l5.985,5.981L30.622,9.524z M30.622,7.565l-0.978,0.979l-5.002,5.004l-5.004-5.004
	l-0.98-0.977L17.68,8.544l-4.565,4.566l-0.98,0.978l0.98,0.979l5.002,5.004l-5.002,5.002l-0.98,0.981l0.98,0.978l4.563,4.567
	l0.98,0.979l0.98-0.979l5.004-5.004l5.002,5.004l0.978,0.979l0.98-0.979l4.565-4.567l0.979-0.978l-0.979-0.981l-5.004-5.002
	l5.004-5.002l0.979-0.98l-0.979-0.979l-4.565-4.566L30.622,7.565z"/>
</svg>
