<?xml version="1.0" encoding="utf-8"?>
<!-- Generator: Adobe Illustrator 15.0.0, SVG Export Plug-In . SVG Version: 6.00 Build 0)  -->
<!DOCTYPE svg PUBLIC "-//W3C//DTD SVG 1.1//EN" "http://www.w3.org/Graphics/SVG/1.1/DTD/svg11.dtd">
<svg version="1.1" id="Camada_1" xmlns="http://www.w3.org/2000/svg" xmlns:xlink="http://www.w3.org/1999/xlink" x="0px" y="0px"
	 width="47.444px" height="40.143px" viewBox="0 0 47.444 40.143" enable-background="new 0 0 47.444 40.143" xml:space="preserve">
<path fill="#FFFFFF" d="M26.522,7.441v2.026c2.085,0,4.52,0.494,6.2,1.827l-2.78,3.389c-0.928-0.812-2.173-1.16-3.42-1.218v4.609
	l2.78,0.809c2.552,0.752,4.2,2.55,4.2,5.243c0,4.058-3.186,6.172-6.98,6.549v2.026H24.61v-2.026c-2.551,0-5.243-0.608-7.154-2.348
	l3.07-3.447c1.014,1.245,2.52,1.68,4.084,1.797v-4.897l-2.113-0.637c-2.927-0.929-4.49-2.493-4.49-5.417
	c0-3.65,3.185-5.853,6.604-6.259V7.441H26.522 M24.61,17.609v-4.057c-1.072,0.233-2.084,0.753-2.084,1.971
	C22.526,17.262,24.118,17.435,24.61,17.609 M26.522,26.619c1.188-0.233,2.464-0.813,2.464-2.145c0-1.246-0.897-1.621-1.912-2
	l-0.552-0.201V26.619 M27.923,6.042h-1.4H24.61h-1.399v1.4v0.854c-3.943,0.916-6.604,3.84-6.604,7.432
	c0,3.375,1.788,5.583,5.468,6.75l1.136,0.342v2.201c-0.692-0.214-1.218-0.552-1.6-1.024l-1.039-1.272l-1.09,1.226l-3.071,3.447
	l-0.921,1.033l1.024,0.931c2.004,1.823,4.558,2.475,6.697,2.653v0.687v1.4h1.399h1.912h1.4v-1.4v-0.819
	c4.341-0.85,6.979-3.737,6.979-7.756c0-3.206-1.897-5.608-5.202-6.583l-1.777-0.518v-1.901c0.39,0.133,0.771,0.328,1.097,0.611
	l1.089,0.953l0.914-1.116l2.782-3.391l0.899-1.099l-1.113-0.884c-1.415-1.122-3.432-1.847-5.668-2.062V7.441V6.042z"/>
<path fill="#FFFFFF" d="M25.479,39.532c-10.731,0-19.459-8.73-19.459-19.461S14.749,0.61,25.479,0.61
	c10.732,0,19.463,8.73,19.463,19.461S36.212,39.532,25.479,39.532 M25.479,2.009c-9.96,0-18.062,8.103-18.062,18.063
	c0,9.959,8.101,18.063,18.062,18.063c9.961,0,18.063-8.104,18.063-18.063C43.543,10.111,35.44,2.009,25.479,2.009"/>
</svg>
