<?xml version="1.0" encoding="utf-8"?>
<!-- Generator: Adobe Illustrator 15.0.0, SVG Export Plug-In . SVG Version: 6.00 Build 0)  -->
<!DOCTYPE svg PUBLIC "-//W3C//DTD SVG 1.1//EN" "http://www.w3.org/Graphics/SVG/1.1/DTD/svg11.dtd">
<svg version="1.1" id="Camada_1" xmlns="http://www.w3.org/2000/svg" xmlns:xlink="http://www.w3.org/1999/xlink" x="0px" y="0px"
	 width="25.25px" height="40px" viewBox="4.375 0 25.25 40" enable-background="new 4.375 0 25.25 40" xml:space="preserve">
<g>
	<path fill="#E17037" d="M28.61,39.313l-3.526-6.285c0.688-0.879,1.111-1.971,1.115-3.176c-0.004-2.862-2.318-5.176-5.181-5.185
		c-2.86,0.011-5.177,2.322-5.182,5.185c0.005,1.385,0.549,2.632,1.439,3.563l-3.313,5.898h6.628v-4.318
		c0.143,0.015,0.28,0.042,0.428,0.042c0.33,0,0.653-0.038,0.968-0.097v4.373H28.61z M23.421,37.879v-3.462
		c0.204-0.109,0.411-0.22,0.598-0.356l2.143,3.818H23.421z M21.019,26.132c2.054,0.004,3.715,1.665,3.719,3.72
		c0,0.299-0.043,0.579-0.112,0.857c-0.095,0.404-0.254,0.776-0.467,1.117l-0.014,0.023c-0.201,0.318-0.459,0.594-0.75,0.839
		c-0.035,0.033-0.075,0.064-0.116,0.101c-0.286,0.222-0.605,0.403-0.951,0.533c-0.049,0.019-0.109,0.031-0.161,0.055
		c-0.367,0.113-0.744,0.196-1.147,0.196c-0.401,0-0.784-0.083-1.146-0.2c-0.054-0.02-0.113-0.032-0.162-0.051
		c-0.343-0.13-0.663-0.312-0.951-0.533c-0.041-0.036-0.079-0.067-0.115-0.101c-0.292-0.245-0.549-0.525-0.755-0.845
		c0-0.005-0.005-0.005-0.005-0.011c-0.219-0.344-0.382-0.729-0.476-1.134c-0.068-0.272-0.112-0.553-0.112-0.85
		C17.302,27.799,18.964,26.136,21.019,26.132 M19.156,37.879h-2.742l2-3.571c0.242,0.141,0.482,0.266,0.742,0.368V37.879
		L19.156,37.879z"/>
	<rect x="10.133" y="11.416" fill="#E17037" width="13.146" height="1.429"/>
	<rect x="10.133" y="15.195" fill="#E17037" width="13.146" height="1.431"/>
	<rect x="10.133" y="18.977" fill="#E17037" width="13.146" height="1.43"/>
	<path fill="#E17037" d="M10.811,0.884l-0.212,0.229L5.459,6.68v23.659h11.732c-0.037-0.22-0.065-0.439-0.065-0.669
		c0-0.26,0.028-0.513,0.076-0.764H6.898V7.652h4.938V2.318h14.69v26.585h-1.577c0.049,0.251,0.077,0.507,0.077,0.767
		c0,0.229-0.031,0.449-0.068,0.667h2.997V0.884H10.811z M10.409,6.222H7.834l2.574-2.783V6.222z"/>
</g>
<rect x="-21.417" y="-7.667" fill="none" width="24.5" height="12.333"/>
</svg>
