<?xml version="1.0" encoding="utf-8"?>
<!-- Generator: Adobe Illustrator 15.0.0, SVG Export Plug-In . SVG Version: 6.00 Build 0)  -->
<!DOCTYPE svg PUBLIC "-//W3C//DTD SVG 1.1//EN" "http://www.w3.org/Graphics/SVG/1.1/DTD/svg11.dtd">
<svg version="1.1" id="Camada_1" xmlns="http://www.w3.org/2000/svg" xmlns:xlink="http://www.w3.org/1999/xlink" x="0px" y="0px"
	 width="47.444px" height="40.143px" viewBox="0 0 47.444 40.143" enable-background="new 0 0 47.444 40.143" xml:space="preserve">
<path fill="#FFFFFF" d="M24.852,7.013c4.357,0,8.036,2.429,8.036,7.038c0,2.713-1.035,4.356-4.428,7.037
	c-1.109,0.857-1.395,1.676-1.395,2.464v1.034h-5.354v-1.571c0-1.43,0.355-2.357,1.249-3.214c2.643-2.536,4.572-3.714,4.572-5.357
	c0-1.571-1.109-2.5-2.572-2.5c-2.214,0-3.394,1.427-3.537,3.178l-5.5-0.356C16.423,9.729,19.889,7.013,24.852,7.013 M24.388,26.588
	c1.824,0,3.287,1.464,3.287,3.286c0,1.819-1.463,3.285-3.287,3.285c-1.821,0-3.287-1.466-3.287-3.285
	C21.101,28.052,22.566,26.588,24.388,26.588 M24.852,5.605c-5.819,0-9.778,3.458-10.33,9.02l-0.143,1.449l1.453,0.094l5.501,0.357
	l1.381,0.091l0.111-1.381c0.059-0.704,0.412-1.885,2.135-1.885c0.53,0,1.163,0.189,1.163,1.092c0,0.604-1.009,1.503-2.284,2.645
	c-0.553,0.492-1.182,1.05-1.854,1.699c-1.163,1.116-1.684,2.422-1.684,4.229v1.571v1.408h1.41h0.037
	c-1.241,0.847-2.053,2.271-2.053,3.88c0,2.589,2.104,4.693,4.692,4.693c2.59,0,4.692-2.104,4.692-4.693
	c0-1.609-0.814-3.033-2.051-3.88h0.036h1.409v-1.408v-1.034c0-0.243,0-0.697,0.847-1.352c3.302-2.609,4.975-4.582,4.975-8.149
	C34.296,9.078,30.413,5.605,24.852,5.605"/>
<path fill="#FFFFFF" d="M24.405,39.672c-10.799,0-19.586-8.786-19.586-19.586C4.819,9.287,13.606,0.5,24.405,0.5
	c10.8,0,19.586,8.787,19.586,19.586C43.991,30.886,35.205,39.672,24.405,39.672 M24.405,1.908c-10.024,0-18.177,8.154-18.177,18.178
	c0,10.023,8.153,18.179,18.177,18.179c10.023,0,18.18-8.155,18.18-18.179C42.585,10.062,34.429,1.908,24.405,1.908"/>
</svg>
