<?xml version="1.0" encoding="utf-8"?>
<!-- Generator: Adobe Illustrator 15.0.0, SVG Export Plug-In . SVG Version: 6.00 Build 0)  -->
<!DOCTYPE svg PUBLIC "-//W3C//DTD SVG 1.1//EN" "http://www.w3.org/Graphics/SVG/1.1/DTD/svg11.dtd">
<svg version="1.1" id="Camada_1" xmlns="http://www.w3.org/2000/svg" xmlns:xlink="http://www.w3.org/1999/xlink" x="0px" y="0px"
	 width="47.444px" height="40.143px" viewBox="0 0 47.444 40.143" enable-background="new 0 0 47.444 40.143" xml:space="preserve">
<path fill="#FFFFFF" d="M27.604,29.562c0.271-0.713,0.421-1.48,0.421-2.283c0-2.091-1.004-3.955-2.558-5.123
	c-0.27-0.201-0.553-0.388-0.853-0.546l-2.893-10.788l3.595-0.964l0.761-0.204l0.759-0.204l0.247-0.064
	c1.123-0.303,2.068-1.023,2.648-2.034c0.188-0.32,0.329-0.663,0.427-1.007c0.077-0.272,0.125-0.545,0.148-0.821
	c0.025-0.33,0.016-0.664-0.037-0.999c-0.022-0.163-0.057-0.326-0.1-0.485C30.158,4,30.147,3.961,30.133,3.923
	c-0.042-0.147-0.094-0.291-0.149-0.432c-0.063-0.147-0.131-0.294-0.209-0.431c-0.074-0.138-0.158-0.269-0.247-0.396
	c-0.266-0.379-0.591-0.712-0.957-0.985c-0.124-0.095-0.252-0.181-0.384-0.259c-0.055-0.031-0.107-0.064-0.162-0.092
	c-0.084-0.045-0.172-0.091-0.258-0.129c-0.56-0.256-1.172-0.396-1.811-0.396c-0.382,0-0.765,0.049-1.135,0.151l-9.575,2.565
	c-2.324,0.623-3.707,3.02-3.085,5.348l3.957,14.76h-0.708H1.628c-0.376,0-0.679,0.305-0.679,0.681v5.253v0.682v9.097h32.13v-4.692
	l-5.082-5.086H27.604z M2.31,24.994h13.313c-0.271,0.708-0.418,1.48-0.418,2.285c0,0.803,0.147,1.57,0.418,2.283H2.31V24.994z
	 M22.703,2.932l1.357-0.362l1.117-0.3c0.255-0.069,0.515-0.102,0.778-0.102c0.168,0,0.331,0.015,0.493,0.039
	c0.078,0.021,0.157,0.049,0.231,0.077l0.021-0.02c0.187,0.046,0.367,0.111,0.537,0.195h0.002c0.614,0.292,1.122,0.794,1.421,1.424
	h0.003c0.074,0.161,0.139,0.332,0.188,0.51c0.017,0.061,0.031,0.126,0.042,0.186c0.039,0.188,0.06,0.374,0.06,0.56
	c0.008,0.532-0.127,1.057-0.402,1.532c-0.398,0.693-1.047,1.189-1.822,1.397l-1.007,0.269l-0.76,0.206l-0.76,0.202l-4.15,1.112
	l0.427,1.597c-0.175,0.226-0.351,0.452-0.524,0.675c-0.099,0.123-0.195,0.248-0.292,0.372l-0.557,0.713l1.528,5.701l0.922,0.374
	c0.119,0.048,0.235,0.096,0.354,0.145c0.267,0.107,0.53,0.214,0.792,0.319l0.344,1.274c-0.244-0.057-0.489-0.1-0.742-0.125
	c-0.226-0.022-0.455-0.037-0.689-0.037c-1.416,0-2.726,0.461-3.788,1.242c-0.204,0.147-0.396,0.306-0.58,0.476l-0.337-1.279
	c0.17-0.224,0.348-0.447,0.521-0.668c0.071-0.096,0.144-0.187,0.218-0.277l0.628-0.812l-1.525-5.701L15.85,13.48
	c-0.127-0.051-0.25-0.102-0.374-0.152c-0.263-0.106-0.526-0.212-0.792-0.32L13.48,8.512c-0.43-1.597,0.523-3.247,2.12-3.675
	L22.703,2.932z M25.099,30.927c-0.909,0.864-2.135,1.397-3.483,1.397c-1.354,0-2.579-0.533-3.484-1.397
	c-0.221-0.208-0.419-0.438-0.597-0.684c-0.093-0.124-0.182-0.257-0.258-0.393c-0.057-0.091-0.111-0.189-0.162-0.289
	c-0.144-0.283-0.26-0.577-0.354-0.888l-0.048-0.179c-0.094-0.392-0.147-0.801-0.147-1.217c0-0.456,0.063-0.9,0.176-1.319
	c0.091-0.337,0.218-0.662,0.373-0.965c0.015-0.033,0.032-0.064,0.048-0.096c0.11-0.206,0.232-0.402,0.371-0.59
	c0.042-0.056,0.088-0.112,0.133-0.172c0.141-0.179,0.296-0.351,0.464-0.509c0.028-0.026,0.056-0.051,0.084-0.077
	c0.897-0.821,2.089-1.321,3.4-1.321c0.367,0,0.729,0.042,1.078,0.116c0.266,0.06,0.521,0.136,0.766,0.235
	c0.289,0.111,0.562,0.252,0.818,0.41c0.325,0.207,0.626,0.441,0.897,0.713c0.598,0.598,1.05,1.345,1.291,2.18l0.045,0.176
	c0.1,0.39,0.15,0.8,0.15,1.22c0,0.02,0,0.039,0,0.06c-0.012,0.797-0.207,1.554-0.547,2.224
	C25.852,30.071,25.506,30.536,25.099,30.927 M21.691,18.607l-0.484-0.197l-1.354-5.044l0.323-0.41L20.2,12.92
	c0.17-0.212,0.336-0.427,0.5-0.64l1.783,6.648c-0.227-0.093-0.447-0.18-0.672-0.272L21.691,18.607z M15.697,14.153l0.483,0.195
	l1.354,5.047l-0.323,0.413l-0.103,0.13c-0.142,0.181-0.279,0.36-0.421,0.544l-1.781-6.647c0.229,0.09,0.456,0.183,0.688,0.276
	L15.697,14.153z M31.091,34.589H15.954v0.682h15.758v2.706H2.31v-7.05h14.032c1.16,1.667,3.09,2.761,5.273,2.761
	c2.179,0,4.108-1.094,5.269-2.761h0.547L31.091,34.589z"/>
<path fill="#FFFFFF" d="M30.487,2.988l0.031,0.033c-0.01-0.017-0.015-0.029-0.021-0.044L30.487,2.988z"/>
<path fill="#FFFFFF" d="M25.952,7.351c0.191,0,0.381-0.023,0.564-0.075c1.166-0.311,1.856-1.511,1.545-2.673
	c-0.064-0.242-0.173-0.468-0.308-0.669c-0.156-0.229-0.358-0.426-0.583-0.579c-0.354-0.234-0.773-0.37-1.219-0.37
	c-0.188,0-0.378,0.026-0.564,0.075c-0.563,0.151-1.034,0.511-1.323,1.016c-0.293,0.505-0.373,1.095-0.22,1.657
	C24.1,6.686,24.966,7.351,25.952,7.351 M24.65,4.418c0.205-0.35,0.527-0.595,0.912-0.699c0.13-0.036,0.261-0.053,0.39-0.053
	c0.68,0,1.277,0.459,1.45,1.113c0.215,0.799-0.261,1.625-1.062,1.838c-0.13,0.034-0.258,0.054-0.389,0.054
	c-0.678,0-1.275-0.458-1.447-1.115C24.4,5.171,24.453,4.768,24.65,4.418"/>
<path fill="#FFFFFF" d="M23.075,28.299c-0.323,0.459-0.858,0.764-1.46,0.764c-0.272,0-0.53-0.063-0.756-0.171
	c-0.071-0.031-0.136-0.068-0.198-0.108c-0.178-0.113-0.334-0.258-0.461-0.422c-0.091-0.113-0.162-0.239-0.224-0.379
	c-0.034-0.076-0.063-0.158-0.085-0.242c-0.04-0.148-0.06-0.304-0.06-0.462c0-0.079,0.003-0.156,0.015-0.234
	c0.019-0.164,0.067-0.324,0.13-0.477c0.048-0.109,0.107-0.215,0.175-0.312c0.136-0.192,0.309-0.36,0.509-0.486
	c0.274-0.175,0.6-0.277,0.955-0.277c0.268,0,0.525,0.062,0.753,0.17c0.263,0.122,0.485,0.305,0.659,0.528
	c0.142,0.185,0.248,0.396,0.311,0.626c0.04,0.147,0.06,0.3,0.06,0.462c0,0.076-0.006,0.155-0.017,0.231
	C23.344,27.802,23.236,28.067,23.075,28.299"/>
<path fill="#FFFFFF" d="M21.615,24.127c0.404,0,0.732-0.328,0.732-0.733c0-0.407-0.328-0.738-0.732-0.738
	c-0.408,0-0.736,0.331-0.736,0.738C20.879,23.8,21.208,24.127,21.615,24.127"/>
<path fill="#FFFFFF" d="M18.348,25.05c0.091,0.091,0.201,0.153,0.317,0.19c0.215,0.057,0.444,0.02,0.628-0.11
	c0.034-0.023,0.065-0.051,0.093-0.08c0.201-0.201,0.261-0.486,0.181-0.742c-0.034-0.106-0.093-0.208-0.181-0.296
	c-0.286-0.289-0.753-0.289-1.039,0l-0.005,0.005v0.002c-0.085,0.085-0.144,0.184-0.175,0.288c-0.071,0.23-0.031,0.49,0.127,0.686
	C18.312,25.014,18.329,25.034,18.348,25.05"/>
<path fill="#FFFFFF" d="M18.465,27.278c0-0.404-0.328-0.736-0.733-0.736c-0.042,0-0.082,0.003-0.127,0.012
	c-0.269,0.043-0.484,0.237-0.571,0.49v0.001c-0.025,0.071-0.037,0.15-0.037,0.233c0,0.217,0.094,0.412,0.247,0.546
	c0.13,0.116,0.299,0.189,0.489,0.189c0.088,0,0.176-0.02,0.255-0.049l0,0C18.264,27.864,18.465,27.592,18.465,27.278"/>
<path fill="#FFFFFF" d="M19.387,29.505c-0.028-0.03-0.059-0.059-0.093-0.078c-0.043-0.032-0.09-0.058-0.133-0.081
	c-0.271-0.112-0.591-0.062-0.813,0.159c-0.02,0.018-0.036,0.037-0.054,0.057c-0.003,0.01-0.011,0.015-0.014,0.022h-0.003
	c-0.144,0.189-0.181,0.441-0.11,0.659c0.034,0.111,0.093,0.213,0.181,0.3c0.286,0.287,0.753,0.287,1.039,0
	c0.087-0.087,0.147-0.188,0.181-0.3c0.071-0.229,0.029-0.483-0.127-0.682C19.424,29.542,19.407,29.522,19.387,29.505"/>
<path fill="#FFFFFF" d="M21.615,30.428c-0.326,0-0.598,0.206-0.697,0.499c-0.026,0.073-0.04,0.151-0.04,0.234
	c0,0.406,0.329,0.735,0.736,0.735c0.404,0,0.732-0.329,0.732-0.735c0-0.083-0.012-0.161-0.04-0.234
	C22.211,30.634,21.94,30.428,21.615,30.428"/>
<path fill="#FFFFFF" d="M24.878,29.505c-0.289-0.288-0.751-0.288-1.039,0c-0.017,0.018-0.036,0.037-0.054,0.057
	c-0.232,0.289-0.213,0.714,0.054,0.981c0.288,0.287,0.75,0.287,1.039,0c0.271-0.268,0.288-0.692,0.056-0.981
	C24.918,29.542,24.9,29.522,24.878,29.505"/>
<path fill="#FFFFFF" d="M26.23,27.278c0-0.218-0.094-0.417-0.247-0.549c-0.126-0.117-0.3-0.188-0.488-0.188
	c-0.354,0-0.651,0.257-0.72,0.592c-0.01,0.048-0.013,0.093-0.013,0.145c0,0.198,0.081,0.381,0.208,0.512
	c0.134,0.139,0.32,0.224,0.524,0.224c0.348,0,0.636-0.237,0.716-0.558C26.225,27.399,26.23,27.34,26.23,27.278"/>
<path fill="#FFFFFF" d="M24.174,25.24c0.229,0.063,0.477,0.009,0.667-0.153c0.012-0.013,0.025-0.022,0.037-0.037
	c0.288-0.289,0.288-0.753,0-1.038c-0.104-0.108-0.243-0.179-0.382-0.205c-0.229-0.042-0.474,0.023-0.651,0.199
	c0,0.006-0.006,0.006-0.006,0.006c-0.286,0.285-0.286,0.75,0,1.038C23.938,25.147,24.052,25.209,24.174,25.24"/>
<path fill="#FFFFFF" d="M46.087,21.12c-0.447-0.951-1.223-2.003-2.191-2.971l-1.639-1.64l-1.236,1.238l-2.312-2.31l1.236-1.241
	l-1.587-1.586l-0.644-0.642l-0.974-0.972l-0.639-0.641l-5.101-5.1c-0.005,0.294-0.034,0.583-0.091,0.872
	c-0.051,0.257-0.119,0.509-0.209,0.755l6.128,6.13l-3.216,3.213l-6.225-6.222l-0.132,0.041l-0.626,0.166l-0.762,0.202l8.927,8.93
	l1.24-1.237l2.312,2.31l-1.239,1.239l1.642,1.638c1.602,1.602,3.331,2.596,4.511,2.596c0.572,0,0.914-0.227,1.109-0.417l0.481-0.484
	l-3.418-3.415l0.741-0.739l3.416,3.416l0.48-0.484C46.464,23.375,46.779,22.605,46.087,21.12 M35.072,17.141l-0.275,0.273
	l-0.699-0.705l3.216-3.215l0.702,0.702l-0.271,0.273L35.072,17.141z M36.761,17.38l-0.243-0.239l1.227-1.223l0.24,0.239l2.55,2.556
	l-0.237,0.238l-0.743,0.739l-0.236,0.24L36.761,17.38z M43.281,24.867h-0.02c-0.682,0-2.06-0.648-3.543-2.059l0.243-0.243l0.27-0.27
	l0.24-0.24L43.281,24.867z M41.694,19.872l-1.223,1.22l-0.726,0.722l-0.271,0.274l-0.243,0.241l-0.674-0.674l0.759-0.758
	l0.718-0.719l0.741-0.741l0.723-0.722l0.758-0.758l0.674,0.676l-0.242,0.241l-0.27,0.275L41.694,19.872z M42.659,19.872l0.241-0.244
	l0.271-0.269l0.24-0.24c0.772,0.812,1.387,1.67,1.746,2.434c0.209,0.449,0.317,0.846,0.312,1.126L42.659,19.872z"/>
</svg>
