<?xml version="1.0" encoding="utf-8"?>
<!-- Generator: Adobe Illustrator 15.0.0, SVG Export Plug-In . SVG Version: 6.00 Build 0)  -->
<!DOCTYPE svg PUBLIC "-//W3C//DTD SVG 1.1//EN" "http://www.w3.org/Graphics/SVG/1.1/DTD/svg11.dtd">
<svg version="1.1" id="Camada_1" xmlns="http://www.w3.org/2000/svg" xmlns:xlink="http://www.w3.org/1999/xlink" x="0px" y="0px"
	 width="47.444px" height="40.143px" viewBox="0 0 47.444 40.143" enable-background="new 0 0 47.444 40.143" xml:space="preserve">
<g>
	<path fill="#FFFFFF" d="M6.624,13.66c0,4.009,3.251,7.262,7.263,7.262c4.009,0,7.258-3.251,7.26-7.262
		c0-0.326-0.024-0.646-0.072-0.96h0.757V8.915h-0.618c-0.074-0.663-0.3-1.649-0.936-2.738c-1.082-1.848-2.188-2.412-2.313-2.467
		l-0.567-0.262l0.067-0.656L16.963,2.56c-0.055-0.009-1.625-0.794-3.04-0.816h-0.075c-1.418,0.022-2.989,0.807-3.042,0.816
		l-0.5,0.231l0.065,0.656l-0.566,0.26c-0.126,0.058-1.229,0.621-2.311,2.47c-0.64,1.087-0.866,2.074-0.94,2.736H5.938v3.785h0.759
		C6.651,13.013,6.624,13.334,6.624,13.66 M13.886,19.368c-3.153-0.005-5.703-2.559-5.705-5.708c0-0.247,0.021-0.491,0.052-0.726
		L8.27,12.96h5.579h0.075h5.562l0.052-0.042c0.031,0.245,0.054,0.49,0.054,0.741C19.588,16.809,17.037,19.363,13.886,19.368
		 M7.494,10.467h0.694L8.08,9.596c0,0-0.002-0.012-0.002-0.111c0-0.354,0.068-1.349,0.757-2.521C9.163,6.398,9.483,5.997,9.75,5.711
		l1.245,3.67l1.511-0.326l-0.54-5.3c0.108-0.043,0.229-0.083,0.363-0.128c0.493-0.178,1.13-0.336,1.52-0.327h0.075
		c0.389-0.009,1.024,0.148,1.52,0.327c0.133,0.045,0.252,0.085,0.359,0.131L15.27,9.056l1.508,0.326l1.241-3.67
		c0.267,0.285,0.587,0.687,0.917,1.252c0.688,1.167,0.759,2.165,0.759,2.521c0,0.104-0.011,0.128-0.011,0.128l-0.081,0.855h0.678
		v0.677h-0.737h-0.275l-0.328,0.264h-5.017H13.85H8.817L8.7,11.314l-0.217-0.172h-0.99V10.467z"/>
	<path fill="#FFFFFF" d="M47.132,8.18H22.947v1.52h22.664v15.75H27.658v1.514h17.953v0.955H26.873V26.95
		c0-3.582-2.908-6.484-6.494-6.484h-1.635l-4.737,5.948h-0.49l-4.872-5.948H7.017c-3.583,0-6.492,2.902-6.492,6.484v9.503h26.348
		v-7.018h3.483v7.092h1.521v-7.092h5.3l-0.045,0.044l7.585,7.584l1.074-1.07l-6.556-6.558h7.896V8.18z M25.694,29.348h-0.006v5.701
		H1.708v-7.964c0-3.258,2.649-5.469,5.909-5.469H8.03l4.434,5.71h2.605l4.313-5.71h0.396c3.261,0,5.908,2.211,5.908,5.469v0.88
		h0.006v1.383H25.694z"/>
	<rect x="31.509" y="13.468" fill="#FFFFFF" width="11.862" height="1.149"/>
	<rect x="31.509" y="16.761" fill="#FFFFFF" width="11.862" height="1.149"/>
	<rect x="31.509" y="20.051" fill="#FFFFFF" width="11.862" height="1.152"/>
	<path fill="#FFFFFF" d="M30.163,14.043c0-0.665-0.537-1.203-1.2-1.203c-0.661,0-1.2,0.539-1.2,1.203s0.539,1.201,1.2,1.201
		C29.626,15.244,30.163,14.708,30.163,14.043"/>
	<path fill="#FFFFFF" d="M30.163,17.335c0-0.663-0.537-1.202-1.2-1.202c-0.661,0-1.2,0.539-1.2,1.202c0,0.664,0.539,1.198,1.2,1.198
		C29.626,18.533,30.163,17.999,30.163,17.335"/>
	<path fill="#FFFFFF" d="M30.163,20.628c0-0.664-0.537-1.201-1.2-1.201c-0.661,0-1.2,0.539-1.2,1.201c0,0.663,0.539,1.202,1.2,1.202
		C29.626,21.828,30.163,21.29,30.163,20.628"/>
</g>
</svg>
