<?xml version="1.0" encoding="utf-8"?>
<!-- Generator: Adobe Illustrator 15.0.0, SVG Export Plug-In . SVG Version: 6.00 Build 0)  -->
<!DOCTYPE svg PUBLIC "-//W3C//DTD SVG 1.1//EN" "http://www.w3.org/Graphics/SVG/1.1/DTD/svg11.dtd">
<svg version="1.1" id="Camada_1" xmlns="http://www.w3.org/2000/svg" xmlns:xlink="http://www.w3.org/1999/xlink" x="0px" y="0px"
	 width="47.444px" height="40.143px" viewBox="0 0 47.444 40.143" enable-background="new 0 0 47.444 40.143" xml:space="preserve">
<path fill="#FFFFFF" d="M41.431,18.832c-0.008-0.003-0.016-0.003-0.024,0H29.771c-0.289,0-0.52-0.235-0.52-0.522V9.561
	c0-0.29,0.23-0.521,0.52-0.521h5.303c0.167,0,0.327,0.082,0.425,0.215l6.252,8.646c0.127,0.095,0.204,0.245,0.204,0.41
	C41.955,18.597,41.721,18.832,41.431,18.832 M30.292,17.791h10.1l-5.58-7.711h-4.52V17.791z"/>
<path fill="#FFFFFF" d="M41.431,18.988H29.771c-0.372,0-0.675-0.304-0.675-0.677V9.56c0-0.372,0.303-0.677,0.675-0.677h5.303
	c0.218,0,0.422,0.104,0.552,0.281l6.238,8.627c0.156,0.128,0.246,0.316,0.246,0.52C42.11,18.684,41.808,18.988,41.431,18.988
	 M29.771,9.197c-0.2,0-0.364,0.162-0.364,0.363v8.751c0,0.202,0.164,0.365,0.364,0.365h11.659c0.205,0,0.365-0.163,0.365-0.365
	c0-0.114-0.05-0.218-0.138-0.287l-0.032-0.033l-6.252-8.645c-0.07-0.096-0.181-0.15-0.3-0.15H29.771z M40.697,17.947H30.136V9.924
	h4.755l0.045,0.064L40.697,17.947z M30.447,17.633h9.64l-5.354-7.396h-4.285V17.633z"/>
<path fill="#FFFFFF" d="M45.44,22.592h-2.151c-0.285,0-0.521-0.233-0.521-0.52c0-0.289,0.235-0.521,0.521-0.521h2.151
	c0.291,0,0.523,0.232,0.523,0.521C45.964,22.359,45.731,22.592,45.44,22.592"/>
<path fill="#FFFFFF" d="M45.44,22.749h-2.151c-0.37,0-0.676-0.304-0.676-0.677c0-0.375,0.306-0.677,0.676-0.677h2.151
	c0.376,0,0.679,0.302,0.679,0.677C46.119,22.445,45.816,22.749,45.44,22.749 M43.289,21.708c-0.2,0-0.365,0.163-0.365,0.364
	c0,0.201,0.165,0.364,0.365,0.364h2.151c0.203,0,0.368-0.163,0.368-0.364c0-0.202-0.165-0.364-0.368-0.364H43.289z"/>
<path fill="#FFFFFF" d="M45.44,25.081h-2.151c-0.285,0-0.521-0.233-0.521-0.521c0-0.288,0.235-0.52,0.521-0.52h2.151
	c0.291,0,0.523,0.231,0.523,0.52C45.964,24.848,45.731,25.081,45.44,25.081"/>
<path fill="#FFFFFF" d="M45.44,25.237h-2.151c-0.37,0-0.676-0.306-0.676-0.677c0-0.373,0.306-0.678,0.676-0.678h2.151
	c0.376,0,0.679,0.305,0.679,0.678C46.119,24.932,45.816,25.237,45.44,25.237 M43.289,24.197c-0.2,0-0.365,0.161-0.365,0.363
	c0,0.201,0.165,0.365,0.365,0.365h2.151c0.203,0,0.368-0.164,0.368-0.365c0-0.202-0.165-0.363-0.368-0.363H43.289z"/>
<path fill="#FFFFFF" d="M26.54,29.185c-0.285,0-0.521-0.233-0.521-0.521V9.561c0-0.29,0.235-0.521,0.521-0.521
	c0.289,0,0.521,0.231,0.521,0.521v19.103C27.061,28.951,26.829,29.185,26.54,29.185"/>
<path fill="#FFFFFF" d="M26.54,29.34c-0.373,0-0.678-0.301-0.678-0.677V9.561c0-0.375,0.305-0.677,0.678-0.677
	s0.679,0.303,0.679,0.677v19.102C27.219,29.039,26.913,29.34,26.54,29.34 M26.54,9.197c-0.2,0-0.36,0.162-0.36,0.364v19.102
	c0,0.203,0.16,0.364,0.36,0.364c0.205,0,0.365-0.161,0.365-0.364V9.561C26.905,9.358,26.745,9.197,26.54,9.197"/>
<path fill="#FFFFFF" d="M26.54,23.764H1.392c-0.287,0-0.52-0.233-0.52-0.521c0-0.288,0.233-0.52,0.52-0.52H26.54
	c0.289,0,0.521,0.232,0.521,0.52C27.061,23.53,26.829,23.764,26.54,23.764"/>
<path fill="#FFFFFF" d="M26.54,23.92H1.392c-0.374,0-0.68-0.303-0.68-0.677c0-0.374,0.306-0.677,0.68-0.677H26.54
	c0.373,0,0.679,0.304,0.679,0.677C27.219,23.617,26.913,23.92,26.54,23.92 M1.392,22.88c-0.202,0-0.365,0.161-0.365,0.363
	s0.163,0.365,0.365,0.365H26.54c0.205,0,0.365-0.163,0.365-0.365s-0.16-0.363-0.365-0.363H1.392z"/>
<path fill="#FFFFFF" d="M9.193,35.401c-2.81,0-5.097-2.287-5.097-5.1c0-2.81,2.287-5.094,5.097-5.094
	c2.812,0,5.099,2.284,5.099,5.094C14.292,33.114,12.005,35.401,9.193,35.401 M9.193,26.249c-2.236,0-4.056,1.817-4.056,4.053
	c0,2.236,1.82,4.059,4.056,4.059c2.239,0,4.057-1.822,4.057-4.059C13.25,28.066,11.432,26.249,9.193,26.249"/>
<path fill="#FFFFFF" d="M9.193,35.558c-2.895,0-5.252-2.357-5.252-5.254s2.357-5.253,5.252-5.253c2.897,0,5.255,2.356,5.255,5.253
	S12.09,35.558,9.193,35.558 M9.193,25.365c-2.725,0-4.938,2.213-4.938,4.938c0,2.725,2.214,4.94,4.938,4.94s4.941-2.216,4.941-4.94
	C14.134,27.578,11.917,25.365,9.193,25.365 M9.193,34.517c-2.324,0-4.208-1.89-4.208-4.213s1.885-4.212,4.208-4.212
	s4.215,1.889,4.215,4.212S11.517,34.517,9.193,34.517 M9.193,26.405c-2.149,0-3.898,1.748-3.898,3.898c0,2.148,1.749,3.9,3.898,3.9
	c2.151,0,3.9-1.752,3.9-3.9C13.093,28.153,11.344,26.405,9.193,26.405"/>
<path fill="#FFFFFF" d="M36.832,35.401c-2.812,0-5.096-2.287-5.096-5.1c0-2.81,2.284-5.094,5.096-5.094
	c2.811,0,5.094,2.284,5.094,5.094C41.926,33.114,39.643,35.401,36.832,35.401 M36.832,26.249c-2.235,0-4.056,1.817-4.056,4.053
	c0,2.236,1.82,4.059,4.056,4.059c2.234,0,4.054-1.822,4.054-4.059C40.886,28.066,39.066,26.249,36.832,26.249"/>
<path fill="#FFFFFF" d="M36.832,35.558c-2.896,0-5.251-2.357-5.251-5.254s2.354-5.253,5.251-5.253c2.896,0,5.252,2.356,5.252,5.253
	S39.728,35.558,36.832,35.558 M36.832,25.365c-2.725,0-4.94,2.213-4.94,4.938c0,2.725,2.216,4.94,4.94,4.94
	c2.723,0,4.938-2.216,4.938-4.94C41.771,27.578,39.555,25.365,36.832,25.365 M36.832,34.517c-2.323,0-4.213-1.89-4.213-4.213
	s1.89-4.212,4.213-4.212c2.321,0,4.21,1.889,4.21,4.212S39.153,34.517,36.832,34.517 M36.832,26.405c-2.151,0-3.9,1.748-3.9,3.898
	c0,2.148,1.749,3.9,3.9,3.9c2.149,0,3.898-1.752,3.898-3.9C40.73,28.153,38.981,26.405,36.832,26.405"/>
<path fill="#FFFFFF" d="M32.066,28.545H13.961c0.125,0.334,0.207,0.681,0.257,1.043H31.81
	C31.861,29.226,31.941,28.879,32.066,28.545"/>
<path fill="#FFFFFF" d="M31.946,29.743H14.083l-0.02-0.136c-0.05-0.359-0.135-0.699-0.25-1.007l-0.078-0.212H32.29l-0.076,0.212
	c-0.119,0.308-0.2,0.647-0.252,1.007L31.946,29.743z M14.352,29.43h17.322c0.042-0.253,0.1-0.498,0.175-0.729H14.176
	C14.253,28.932,14.309,29.177,14.352,29.43"/>
<path fill="#FFFFFF" d="M46.472,18.405L37.192,5.358c-0.1-0.137-0.261-0.22-0.425-0.22H1.032c-0.286,0-0.521,0.233-0.521,0.521
	v23.407c0,0.287,0.235,0.52,0.521,0.52h3.137c0.052-0.359,0.137-0.708,0.26-1.04H1.555V6.179h34.942l9.031,12.692v9.675h-3.933
	c0.125,0.332,0.21,0.681,0.258,1.04h4.195c0.285,0,0.52-0.232,0.52-0.52V18.707C46.568,18.598,46.534,18.493,46.472,18.405"/>
<path fill="#FFFFFF" d="M46.049,29.743h-4.331L41.7,29.607c-0.054-0.359-0.135-0.699-0.252-1.007l-0.078-0.212h4.003v-9.467
	L36.417,6.336H1.71v22.053h2.942l-0.076,0.212c-0.115,0.308-0.2,0.647-0.252,1.007l-0.019,0.136H1.032
	c-0.373,0-0.676-0.304-0.676-0.677V5.659c0-0.373,0.303-0.678,0.676-0.678h35.735c0.218,0,0.425,0.107,0.548,0.286L46.6,18.314
	c0.082,0.114,0.127,0.25,0.127,0.393v10.359C46.727,29.439,46.421,29.743,46.049,29.743 M41.986,29.43h4.063
	c0.2,0,0.363-0.162,0.363-0.363V18.707c0-0.076-0.022-0.148-0.067-0.21l-9.28-13.049c-0.07-0.095-0.181-0.152-0.297-0.152H1.032
	c-0.201,0-0.363,0.162-0.363,0.363v23.407c0,0.201,0.162,0.363,0.363,0.363h3.004c0.042-0.253,0.1-0.498,0.172-0.729H1.397V6.022
	h35.178l0.049,0.066l9.06,12.733v9.879h-3.87C41.891,28.932,41.946,29.177,41.986,29.43"/>
<path fill="#FFFFFF" d="M32.451,22.993h-1.772c-0.789,0-1.427-0.641-1.427-1.425c0-0.789,0.638-1.429,1.427-1.429h1.772
	c0.786,0,1.427,0.64,1.427,1.429C33.878,22.352,33.237,22.993,32.451,22.993 M30.679,21.18c-0.218,0-0.387,0.168-0.387,0.388
	c0,0.215,0.169,0.383,0.387,0.383h1.772c0.213,0,0.388-0.172,0.388-0.383c0-0.216-0.175-0.388-0.388-0.388H30.679z"/>
<path fill="#FFFFFF" d="M32.451,23.15h-1.772c-0.874,0-1.582-0.709-1.582-1.583c0-0.874,0.708-1.586,1.582-1.586h1.772
	c0.874,0,1.586,0.712,1.586,1.586C34.037,22.441,33.325,23.15,32.451,23.15 M30.679,20.295c-0.701,0-1.271,0.57-1.271,1.273
	c0,0.7,0.57,1.27,1.271,1.27h1.772c0.701,0,1.271-0.569,1.271-1.27c0-0.703-0.57-1.273-1.271-1.273H30.679z M32.451,22.108h-1.772
	c-0.306,0-0.543-0.237-0.543-0.54c0-0.305,0.237-0.545,0.543-0.545h1.772c0.3,0,0.546,0.246,0.546,0.545
	C32.997,21.866,32.751,22.108,32.451,22.108 M30.679,21.336c-0.133,0-0.231,0.099-0.231,0.231c0,0.13,0.099,0.228,0.231,0.228h1.772
	c0.128,0,0.231-0.102,0.231-0.228c0-0.127-0.104-0.231-0.231-0.231H30.679z"/>
</svg>
