<?xml version="1.0" encoding="utf-8"?>
<!-- Generator: Adobe Illustrator 16.0.2, SVG Export Plug-In . SVG Version: 6.00 Build 0)  -->
<!DOCTYPE svg PUBLIC "-//W3C//DTD SVG 1.1//EN" "http://www.w3.org/Graphics/SVG/1.1/DTD/svg11.dtd">
<svg version="1.1" id="Layer_1" xmlns="http://www.w3.org/2000/svg" xmlns:xlink="http://www.w3.org/1999/xlink" x="0px" y="0px"
	 width="77.667px" height="77.667px" viewBox="0 0 77.667 77.667" enable-background="new 0 0 77.667 77.667" xml:space="preserve">
<path d="M38.834,76.514c-20.778,0-37.68-16.904-37.68-37.681S18.056,1.153,38.834,1.153c20.776,0,37.678,16.904,37.678,37.681
	S59.61,76.514,38.834,76.514z M38.834,4.064c-19.174,0-34.77,15.598-34.77,34.769s15.596,34.769,34.77,34.769
	c19.172,0,34.768-15.598,34.768-34.769S58.006,4.064,38.834,4.064z"/>
<polygon points="56.621,36.946 40.719,36.946 40.719,21.044 36.947,21.044 36.947,36.946 21.045,36.946 21.045,40.72 36.947,40.72 
	36.947,56.622 40.719,56.622 40.719,40.72 56.621,40.72 "/>
</svg>
