<?xml version="1.0" encoding="utf-8"?>
<!-- Generator: Adobe Illustrator 15.0.0, SVG Export Plug-In . SVG Version: 6.00 Build 0)  -->
<!DOCTYPE svg PUBLIC "-//W3C//DTD SVG 1.1//EN" "http://www.w3.org/Graphics/SVG/1.1/DTD/svg11.dtd">
<svg version="1.1" id="Camada_1" xmlns="http://www.w3.org/2000/svg" xmlns:xlink="http://www.w3.org/1999/xlink" x="0px" y="0px"
	 width="47px" height="47px" viewBox="0 0 47 47" enable-background="new 0 0 47 47" xml:space="preserve">
<g>
	<defs>
		<rect id="SVGID_1_" width="47" height="47"/>
	</defs>
	<clipPath id="SVGID_2_">
		<use xlink:href="#SVGID_1_"  overflow="visible"/>
	</clipPath>
</g>
<path fill="#FFFFFF" d="M35.435,12.255c-0.886,0-1.603-0.718-1.603-1.604v-5.04c0-0.886,0.717-1.604,1.603-1.604
	c0.885,0,1.604,0.718,1.604,1.604v5.04C37.038,11.537,36.319,12.255,35.435,12.255"/>
<path fill="#FFFFFF" d="M11.564,12.255c-0.885,0-1.604-0.718-1.604-1.604v-5.04c0-0.886,0.719-1.604,1.604-1.604
	s1.603,0.718,1.603,1.604v5.04C13.167,11.537,12.45,12.255,11.564,12.255"/>
<path fill="#FFFFFF" d="M11.78,21.849H8.354c-0.502,0-0.91,0.409-0.91,0.909v3.426c0,0.501,0.408,0.91,0.91,0.91h3.426
	c0.501,0,0.91-0.409,0.91-0.91v-3.426C12.689,22.258,12.281,21.849,11.78,21.849"/>
<path fill="#FFFFFF" d="M19.861,21.849h-3.425c-0.502,0-0.911,0.409-0.911,0.909v3.426c0,0.501,0.408,0.91,0.911,0.91h3.425
	c0.501,0,0.91-0.409,0.91-0.91v-3.426C20.771,22.258,20.362,21.849,19.861,21.849"/>
<path fill="#FFFFFF" d="M27.94,21.849h-3.424c-0.502,0-0.909,0.409-0.909,0.909v3.426c0,0.501,0.407,0.91,0.909,0.91h3.424
	c0.504,0,0.911-0.409,0.911-0.91v-3.426C28.852,22.258,28.444,21.849,27.94,21.849"/>
<path fill="#FFFFFF" d="M11.78,30.913H8.354c-0.502,0-0.91,0.408-0.91,0.91v3.424c0,0.502,0.408,0.911,0.91,0.911h3.426
	c0.501,0,0.91-0.409,0.91-0.911v-3.424C12.689,31.321,12.281,30.913,11.78,30.913"/>
<path fill="#FFFFFF" d="M19.861,30.913h-3.425c-0.502,0-0.911,0.408-0.911,0.91v3.424c0,0.502,0.408,0.911,0.911,0.911h3.425
	c0.501,0,0.91-0.409,0.91-0.911v-3.424C20.771,31.321,20.362,30.913,19.861,30.913"/>
<path fill="#FFFFFF" d="M27.94,30.913h-3.424c-0.502,0-0.909,0.408-0.909,0.91v3.424c0,0.502,0.407,0.911,0.909,0.911h3.424
	c0.504,0,0.911-0.409,0.911-0.911v-3.424C28.852,31.321,28.444,30.913,27.94,30.913"/>
<path fill="#FFFFFF" d="M15.001,9.522h16.997c0.135,0,0.246-0.11,0.246-0.245V6.985c0-0.136-0.111-0.245-0.246-0.245H15.001
	c-0.136,0-0.245,0.109-0.245,0.245v2.292C14.756,9.412,14.865,9.522,15.001,9.522"/>
<path fill="#FFFFFF" d="M45.233,9.772c-0.021-0.041-0.045-0.082-0.067-0.123c-1.002-1.737-2.877-2.91-5.022-2.91h-1.271l0,0l0,0
	c-0.137,0-0.246,0.109-0.246,0.246v2.292c0,0.135,0.109,0.245,0.246,0.245h1.271c0.934,0,1.769,0.427,2.32,1.096
	c0.43,0.521,0.688,1.186,0.688,1.911v2.429H3.848v-2.429c0-1.658,1.35-3.007,3.008-3.007h1.272c0.136,0,0.245-0.11,0.245-0.245
	V6.985c0-0.136-0.109-0.245-0.245-0.245H6.856c-3.193,0-5.79,2.597-5.79,5.789v23.885c0,3.192,2.597,5.789,5.79,5.789h18.701h4.266
	h10.321c3.193,0,5.791-2.597,5.791-5.789V25.885V12.529C45.935,11.532,45.68,10.592,45.233,9.772 M43.152,36.414
	c0,1.658-1.35,3.007-3.009,3.007H29.822h-4.266H6.856c-1.659,0-3.008-1.349-3.008-3.007V17.903h21.709h17.595v7.982h0.001V36.414z"
	/>
<path fill="#FFFFFF" d="M39.718,22.697c0,0-2.276,3.261-3.041,4.368c-0.144,0.209-0.346,0.328-0.534,0.359
	c-0.196,0.027-0.428-0.029-0.61-0.172l-1.426-1.168c-0.32-0.266-0.367-0.742-0.103-1.063c0.264-0.322,0.738-0.369,1.063-0.105
	l0.806,0.664l2.608-3.745c0.236-0.342,0.706-0.426,1.05-0.188C39.87,21.886,39.956,22.355,39.718,22.697"/>
<path fill="#FFFFFF" d="M39.292,31.764c0,0-2.276,3.26-3.041,4.367c-0.144,0.21-0.346,0.327-0.534,0.355
	c-0.196,0.031-0.428-0.026-0.61-0.168l-1.426-1.171c-0.32-0.265-0.367-0.739-0.103-1.063c0.264-0.32,0.738-0.367,1.063-0.103
	l0.806,0.663l2.608-3.744c0.236-0.342,0.706-0.428,1.05-0.188C39.444,30.951,39.53,31.421,39.292,31.764"/>
</svg>
