<?xml version="1.0" encoding="utf-8"?>
<!-- Generator: Adobe Illustrator 15.0.0, SVG Export Plug-In . SVG Version: 6.00 Build 0)  -->
<!DOCTYPE svg PUBLIC "-//W3C//DTD SVG 1.1//EN" "http://www.w3.org/Graphics/SVG/1.1/DTD/svg11.dtd">
<svg version="1.1" id="Camada_1" xmlns="http://www.w3.org/2000/svg" xmlns:xlink="http://www.w3.org/1999/xlink" x="0px" y="0px"
	 width="47.444px" height="40.143px" viewBox="0 0 47.444 40.143" enable-background="new 0 0 47.444 40.143" xml:space="preserve">
<path fill="#FFFFFF" d="M23.854,39.505l-0.993-1.36c-0.511-0.699-12.496-17.216-12.496-24.304c0-7.436,6.053-13.484,13.489-13.484
	c7.438,0,13.485,6.048,13.485,13.484c0,7.088-11.983,23.605-12.493,24.304L23.854,39.505z M23.854,2.811
	c-6.085,0-11.032,4.947-11.032,11.03c0,4.768,7.226,16.048,11.032,21.469c3.803-5.421,11.03-16.702,11.03-21.469
	C34.885,7.758,29.939,2.811,23.854,2.811"/>
<path fill="#FFFFFF" d="M23.861,19.874c-0.183,0-0.366-0.006-0.551-0.023c-1.688-0.143-3.221-0.938-4.31-2.236
	c-1.092-1.297-1.614-2.94-1.467-4.629c0.294-3.436,3.356-6.086,6.865-5.776c1.686,0.144,3.217,0.939,4.31,2.236
	c1.09,1.296,1.613,2.94,1.465,4.628C29.895,17.327,27.119,19.874,23.861,19.874 M23.848,9.64c-1.997,0-3.697,1.562-3.87,3.557
	c-0.09,1.035,0.231,2.042,0.897,2.836c0.671,0.796,1.611,1.282,2.645,1.372l0.342,0.014c1.997,0,3.696-1.563,3.869-3.558
	c0.087-1.034-0.231-2.042-0.899-2.838c-0.67-0.795-1.609-1.281-2.646-1.37L23.848,9.64z"/>
</svg>
