<?xml version="1.0" encoding="utf-8"?>
<!-- Generator: Adobe Illustrator 15.0.0, SVG Export Plug-In . SVG Version: 6.00 Build 0)  -->
<!DOCTYPE svg PUBLIC "-//W3C//DTD SVG 1.1//EN" "http://www.w3.org/Graphics/SVG/1.1/DTD/svg11.dtd">
<svg version="1.1" id="Camada_1" xmlns="http://www.w3.org/2000/svg" xmlns:xlink="http://www.w3.org/1999/xlink" x="0px" y="0px"
	 width="40px" height="40px" viewBox="0 0 40 40" enable-background="new 0 0 40 40" xml:space="preserve">
<g>
	<path fill="#FFFFFF" d="M37.337,31.541L39.74,30.6l-0.01-0.589c-0.015-0.927-0.17-1.842-0.454-2.714l-0.182-0.572l-2.638-0.081
		c-0.062-0.106-0.129-0.21-0.197-0.311l1.06-2.434l-0.429-0.411c-0.315-0.304-0.66-0.59-1.028-0.854
		c-0.382-0.269-0.781-0.515-1.195-0.727l-0.532-0.271l-1.96,1.834c-0.115-0.029-0.229-0.055-0.343-0.076l-0.976-2.492l-0.597,0.015
		c-0.915,0.015-1.824,0.175-2.689,0.461l-0.569,0.185l-0.081,2.675c-0.104,0.057-0.208,0.126-0.307,0.189l-2.43-1.055l-0.409,0.422
		c-0.306,0.308-0.569,0.633-0.818,0.966c-0.294,0.424-0.548,0.849-0.76,1.279l-0.269,0.533l1.795,1.912
		c-0.037,0.124-0.063,0.254-0.089,0.385l-2.421,0.941l0.015,0.6c0.022,0.929,0.188,1.841,0.488,2.714l0.189,0.562l2.552,0.084
		c0.066,0.121,0.15,0.242,0.227,0.36l-1.018,2.324l0.434,0.414c0.306,0.284,0.631,0.564,0.988,0.816
		c0.409,0.291,0.833,0.55,1.287,0.769l0.527,0.257l1.826-1.711c0.141,0.034,0.284,0.066,0.424,0.094l0.922,2.337l0.595-0.015
		c0.927-0.02,1.841-0.188,2.727-0.474l0.569-0.185l0.081-2.522c0.126-0.068,0.244-0.147,0.357-0.229l2.322,1.013l0.414-0.429
		c0.311-0.32,0.599-0.673,0.857-1.04c0.286-0.393,0.53-0.794,0.735-1.203l0.275-0.535l-1.765-1.876
		C37.28,31.803,37.31,31.672,37.337,31.541 M36.923,34.088c-0.104,0.157-0.202,0.313-0.311,0.463
		c-0.104,0.141-0.207,0.279-0.32,0.412l-2.128-0.93l-0.401,0.323c-0.296,0.236-0.616,0.438-0.932,0.592l-0.461,0.227l-0.077,2.305
		c-0.357,0.089-0.715,0.155-1.077,0.19l-0.838-2.14l-0.511-0.06c-0.367-0.039-0.734-0.123-1.087-0.246l-0.485-0.166l-1.682,1.58
		c-0.18-0.108-0.357-0.222-0.527-0.35c-0.125-0.084-0.244-0.178-0.362-0.273l0.927-2.117l-0.315-0.402
		c-0.234-0.293-0.429-0.613-0.597-0.949l-0.231-0.453l-2.344-0.079c-0.087-0.348-0.15-0.7-0.186-1.055l2.209-0.86l0.062-0.508
		c0.042-0.362,0.118-0.703,0.239-1.061l0.17-0.485l-1.656-1.76c0.108-0.178,0.225-0.353,0.343-0.527
		c0.086-0.114,0.175-0.228,0.269-0.336l2.224,0.967l0.404-0.311c0.273-0.212,0.584-0.404,0.899-0.564l0.456-0.229l0.076-2.445
		c0.341-0.084,0.683-0.144,1.035-0.18l0.9,2.285l0.5,0.063c0.348,0.045,0.695,0.118,1.03,0.227l0.476,0.158l1.79-1.671
		c0.16,0.096,0.311,0.196,0.466,0.306c0.139,0.099,0.264,0.199,0.393,0.306l-0.967,2.238l0.315,0.398
		c0.217,0.276,0.409,0.577,0.564,0.893l0.227,0.459l2.411,0.073c0.084,0.348,0.146,0.7,0.175,1.056l-2.224,0.867l-0.057,0.513
		c-0.042,0.365-0.113,0.71-0.227,1.063l-0.162,0.481L36.923,34.088z M20.323,22.038l2.876,1.235l0.409-0.463
		c0.326-0.365,0.632-0.755,0.92-1.154c0.286-0.395,0.522-0.789,0.752-1.183l0.315-0.555l-2.137-2.255l0.02-0.062l3.113-0.373
		l0.126-0.606c0.18-0.878,0.273-1.77,0.273-2.663v-0.192l-0.005-0.636l-2.985-0.882c0-0.022-0.005-0.044-0.01-0.064l2.519-1.878
		l-0.201-0.586c-0.307-0.902-0.698-1.777-1.191-2.618l-0.325-0.547l-3.015,0.729c-0.01-0.017-0.027-0.04-0.042-0.054l1.228-2.87
		l-0.451-0.409c-0.372-0.333-0.757-0.641-1.168-0.932c-0.395-0.271-0.777-0.518-1.191-0.744l-0.547-0.306L17.36,4.1
		c-0.015-0.01-0.042-0.015-0.066-0.024l-0.367-3.108l-0.611-0.126c-0.88-0.18-1.763-0.271-2.653-0.271c-0.074,0-0.145,0-0.219,0.002
		l-0.624,0.015l-0.87,2.966c-0.025,0.005-0.052,0.01-0.067,0.01L9.999,1.054L9.42,1.246C8.503,1.551,7.625,1.951,6.792,2.449
		L6.255,2.771l0.725,3.01C6.958,5.799,6.947,5.813,6.925,5.828L4.056,4.593L3.647,5.047C3.312,5.419,3.006,5.809,2.722,6.206
		C2.441,6.605,2.2,6.997,1.971,7.396L1.655,7.948l2.137,2.246c-0.005,0.025-0.01,0.047-0.022,0.069l-3.101,0.37l-0.131,0.602
		c-0.189,0.915-0.278,1.836-0.278,2.751v0.128l0.015,0.621l2.976,0.878c0.005,0.02,0.005,0.044,0.01,0.059l-2.52,1.883l0.202,0.589
		c0.303,0.902,0.698,1.785,1.196,2.623l0.325,0.542l3.01-0.727c0.015,0.015,0.032,0.029,0.046,0.051l-1.232,2.875l0.456,0.411
		c0.372,0.326,0.762,0.637,1.164,0.925c0.395,0.273,0.792,0.518,1.186,0.742l0.552,0.313l2.246-2.137
		c0.02,0.01,0.042,0.02,0.067,0.027l0.367,3.113l0.606,0.118c0.885,0.188,1.79,0.273,2.679,0.273h0.161l0.646,0.018l0.89-3
		c0.024-0.005,0.047-0.008,0.062-0.013l1.883,2.51l0.579-0.197c0.905-0.296,1.79-0.692,2.623-1.188l0.547-0.32l-0.73-3.022
		C20.293,22.07,20.308,22.056,20.323,22.038 M19.588,20.409c-0.254,0.234-0.51,0.448-0.787,0.653L18.349,21.4l0.688,2.859
		c-0.382,0.194-0.767,0.369-1.164,0.522l-1.785-2.387l-0.545,0.126c-0.325,0.076-0.655,0.131-0.976,0.16l-0.574,0.052l-0.838,2.843
		c-0.429-0.015-0.853-0.055-1.277-0.118L11.525,22.5l-0.527-0.163c-0.325-0.102-0.636-0.215-0.947-0.355l-0.522-0.236l-2.137,2.026
		c-0.165-0.104-0.335-0.217-0.5-0.33c-0.182-0.129-0.362-0.264-0.537-0.409l1.168-2.722l-0.368-0.407
		c-0.234-0.254-0.451-0.52-0.653-0.792l-0.335-0.458l-2.859,0.69c-0.202-0.379-0.38-0.771-0.533-1.168l2.384-1.78l-0.125-0.542
		c-0.077-0.32-0.124-0.641-0.158-0.986L4.82,14.291l-2.84-0.838c0.022-0.424,0.059-0.848,0.125-1.267l2.938-0.35l0.165-0.518
		c0.108-0.33,0.232-0.648,0.368-0.966l0.227-0.52l-2.021-2.13c0.108-0.17,0.217-0.343,0.331-0.508
		c0.135-0.18,0.273-0.362,0.414-0.537L7.248,7.83L7.65,7.462c0.264-0.236,0.528-0.454,0.799-0.65l0.454-0.338L8.214,3.61
		c0.382-0.2,0.767-0.377,1.164-0.533l1.775,2.384l0.542-0.118c0.333-0.074,0.668-0.128,1.003-0.163l0.565-0.06l0.833-2.83
		c0.429,0.015,0.853,0.057,1.272,0.118l0.357,2.948l0.522,0.167c0.326,0.104,0.641,0.222,0.947,0.36l0.527,0.239l2.135-2.034
		c0.167,0.104,0.338,0.212,0.508,0.331c0.182,0.133,0.362,0.269,0.538,0.409l-1.173,2.731l0.377,0.404
		c0.222,0.247,0.441,0.513,0.648,0.792l0.341,0.454l2.85-0.693c0.202,0.385,0.377,0.774,0.532,1.168l-2.379,1.78l0.118,0.538
		c0.074,0.333,0.131,0.666,0.17,1.011l0.064,0.557l2.817,0.838c-0.015,0.419-0.057,0.843-0.123,1.267l-2.948,0.36l-0.17,0.53
		c-0.094,0.313-0.212,0.631-0.353,0.925l-0.239,0.527l2.034,2.149c-0.104,0.167-0.218,0.331-0.326,0.496
		c-0.135,0.185-0.273,0.367-0.419,0.545l-2.726-1.173L19.588,20.409z M13.625,9.287c-2.566,0-4.645,2.081-4.645,4.647
		c0,2.566,2.078,4.646,4.645,4.646c2.571,0,4.644-2.081,4.649-4.646C18.27,11.367,16.196,9.287,13.625,9.287 M13.625,16.869
		c-1.625-0.002-2.934-1.316-2.934-2.936c0-1.625,1.309-2.934,2.934-2.936c1.625,0.002,2.933,1.312,2.938,2.936
		C16.559,15.553,15.25,16.867,13.625,16.869"/>
</g>
</svg>
