<?xml version="1.0" encoding="utf-8"?>
<!-- Generator: Adobe Illustrator 15.0.0, SVG Export Plug-In . SVG Version: 6.00 Build 0)  -->
<!DOCTYPE svg PUBLIC "-//W3C//DTD SVG 1.1//EN" "http://www.w3.org/Graphics/SVG/1.1/DTD/svg11.dtd">
<svg version="1.1" id="Camada_1" xmlns="http://www.w3.org/2000/svg" xmlns:xlink="http://www.w3.org/1999/xlink" x="0px" y="0px"
	 width="40px" height="40px" viewBox="0 0 40 40" enable-background="new 0 0 40 40" xml:space="preserve">
<g>
	<path fill="#FFFFFF" d="M32.049,40l-3.671-6.542c0.716-0.915,1.156-2.052,1.161-3.306c-0.005-2.979-2.413-5.388-5.393-5.396
		c-2.976,0.009-5.388,2.417-5.393,5.396c0.005,1.442,0.571,2.738,1.498,3.709L16.802,40h6.899v-4.495
		c0.148,0.014,0.292,0.044,0.445,0.044c0.344,0,0.68-0.04,1.008-0.102V40H32.049z M26.647,38.507v-3.603
		c0.213-0.113,0.428-0.229,0.623-0.37l2.23,3.973H26.647z M24.146,26.279c2.138,0.005,3.868,1.735,3.872,3.873
		c0,0.311-0.046,0.604-0.117,0.893c-0.098,0.419-0.264,0.809-0.487,1.163l-0.013,0.022c-0.209,0.332-0.479,0.62-0.782,0.875
		c-0.036,0.035-0.078,0.068-0.12,0.104c-0.299,0.23-0.631,0.421-0.99,0.556c-0.051,0.02-0.115,0.033-0.168,0.056
		c-0.382,0.119-0.775,0.204-1.194,0.204s-0.817-0.085-1.194-0.209c-0.056-0.018-0.117-0.031-0.168-0.051
		c-0.357-0.135-0.691-0.325-0.99-0.556c-0.042-0.036-0.082-0.069-0.12-0.103c-0.304-0.257-0.571-0.547-0.786-0.882
		c0-0.004-0.005-0.004-0.005-0.009c-0.228-0.358-0.398-0.758-0.496-1.181c-0.071-0.283-0.117-0.576-0.117-0.884
		C20.278,28.015,22.009,26.284,24.146,26.279 M22.208,38.507h-2.854l2.082-3.716c0.251,0.145,0.501,0.275,0.771,0.382V38.507z"/>
	<rect x="12.816" y="10.962" fill="#FFFFFF" width="13.683" height="1.487"/>
	<rect x="12.816" y="14.896" fill="#FFFFFF" width="13.683" height="1.489"/>
	<rect x="12.816" y="18.832" fill="#FFFFFF" width="13.683" height="1.489"/>
	<path fill="#FFFFFF" d="M13.521,0l-0.22,0.239L7.951,6.033v24.625h12.212c-0.038-0.228-0.068-0.456-0.068-0.695
		c0-0.271,0.03-0.536,0.079-0.796H9.449V7.045h5.14V1.493H29.88v27.673h-1.642c0.051,0.26,0.08,0.525,0.08,0.796
		c0,0.239-0.033,0.468-0.071,0.695h3.12V0H13.521z M13.103,5.556h-2.679l2.679-2.897V5.556z"/>
</g>
</svg>
