<?xml version="1.0" encoding="utf-8"?>
<!-- Generator: Adobe Illustrator 15.0.0, SVG Export Plug-In . SVG Version: 6.00 Build 0)  -->
<!DOCTYPE svg PUBLIC "-//W3C//DTD SVG 1.1//EN" "http://www.w3.org/Graphics/SVG/1.1/DTD/svg11.dtd">
<svg version="1.1" id="Camada_1" xmlns="http://www.w3.org/2000/svg" xmlns:xlink="http://www.w3.org/1999/xlink" x="0px" y="0px"
	 width="40px" height="40px" viewBox="0 0 40 40" enable-background="new 0 0 40 40" xml:space="preserve">
<g>
	<path id="SVGID_1_" fill="#FFFFFF" d="M40,16.667v6.667h-7.076c-0.314,1.228-0.801,2.378-1.431,3.445l5.007,5.007L31.783,36.5
		l-5.007-5.005c-1.064,0.628-2.215,1.115-3.441,1.429V40h-6.667v-7.093c-1.223-0.32-2.367-0.806-3.426-1.432L8.215,36.5
		l-4.712-4.714l5.039-5.038c-0.617-1.059-1.098-2.199-1.412-3.413H0v-6.667h7.145c0.316-1.209,0.794-2.345,1.417-3.394l-5.06-5.06
		l4.712-4.712l5.058,5.059c1.049-0.621,2.184-1.099,3.395-1.416V0h6.667v7.129c1.215,0.313,2.355,0.794,3.409,1.412l5.038-5.039
		l4.717,4.712l-5.024,5.025c0.63,1.059,1.113,2.205,1.432,3.428L40,16.667L40,16.667z M19.96,13.231c-3.718,0-6.73,3.012-6.73,6.73
		c0,3.72,3.011,6.733,6.73,6.733s6.732-3.014,6.732-6.733C26.692,16.243,23.679,13.231,19.96,13.231L19.96,13.231z"/>
</g>
</svg>
