<?xml version="1.0" encoding="utf-8"?>
<!-- Generator: Adobe Illustrator 15.0.0, SVG Export Plug-In . SVG Version: 6.00 Build 0)  -->
<!DOCTYPE svg PUBLIC "-//W3C//DTD SVG 1.1//EN" "http://www.w3.org/Graphics/SVG/1.1/DTD/svg11.dtd">
<svg version="1.1" id="Camada_1" xmlns="http://www.w3.org/2000/svg" xmlns:xlink="http://www.w3.org/1999/xlink" x="0px" y="0px"
	 width="47.444px" height="40.143px" viewBox="0 0 47.444 40.143" enable-background="new 0 0 47.444 40.143" xml:space="preserve">
<path fill="#FFFFFF" d="M29.743,0.875H6.348v33.665h26.951V4.434L29.743,0.875z M31.63,32.872H8.012V2.543h21.041l2.577,2.578
	V32.872z M11.014,17.313h17.614v-1.665H11.014V17.313z M11.014,11.507h17.614V9.843H11.014V11.507z M11.014,23.12h17.614v-1.664
	H11.014V23.12z M11.014,28.928h17.614v-1.666H11.014V28.928z"/>
<polygon fill="#FFFFFF" points="34.828,5.959 34.172,5.959 34.172,7.665 36.717,10.207 36.717,37.96 13.097,37.96 13.097,35.418 
	11.433,35.418 11.433,39.627 38.386,39.627 38.386,9.519 "/>
</svg>
