<?xml version="1.0" encoding="utf-8"?>
<!-- Generator: Adobe Illustrator 15.0.0, SVG Export Plug-In . SVG Version: 6.00 Build 0)  -->
<!DOCTYPE svg PUBLIC "-//W3C//DTD SVG 1.1//EN" "http://www.w3.org/Graphics/SVG/1.1/DTD/svg11.dtd">
<svg version="1.1" id="Camada_1" xmlns="http://www.w3.org/2000/svg" xmlns:xlink="http://www.w3.org/1999/xlink" x="0px" y="0px"
	 width="47.444px" height="40.143px" viewBox="0 0 47.444 40.143" enable-background="new 0 0 47.444 40.143" xml:space="preserve">
<g>
	<path fill="#FFFFFF" d="M46.136,34.104H1.345c-0.638,0-1.15-0.515-1.15-1.147c0-0.634,0.512-1.146,1.15-1.146h44.791
		c0.635,0,1.146,0.512,1.146,1.146C47.282,33.589,46.771,34.104,46.136,34.104"/>
	<path fill="#FFFFFF" d="M36.301,34.03H11.176c-0.59,0-1.07-0.48-1.07-1.074V7.467c0-0.593,0.48-1.074,1.07-1.074h25.125
		c0.588,0,1.07,0.48,1.07,1.074v25.489C37.371,33.55,36.889,34.03,36.301,34.03 M12.249,31.883H35.23V8.54H12.249V31.883z"/>
	<path fill="#FFFFFF" d="M11.176,34.019H4.238c-0.583,0-1.06-0.48-1.06-1.063V14.963c0-0.583,0.476-1.064,1.06-1.064h6.938
		c0.587,0,1.062,0.481,1.062,1.064v17.993C12.238,33.538,11.764,34.019,11.176,34.019 M5.304,31.893h4.811V16.026H5.304V31.893z"/>
	<path fill="#FFFFFF" d="M43.237,34.019h-6.937c-0.587,0-1.06-0.48-1.06-1.063V14.963c0-0.583,0.473-1.064,1.06-1.064h6.937
		c0.588,0,1.059,0.481,1.059,1.064v17.993C44.296,33.538,43.825,34.019,43.237,34.019 M37.362,31.893h4.815V16.026h-4.815V31.893z"
		/>
	<path fill="#FFFFFF" d="M30.062,27.448H17.416c-0.374,0-0.678-0.306-0.678-0.677v-2.808c0-0.371,0.304-0.678,0.678-0.678h12.646
		c0.374,0,0.677,0.307,0.677,0.678v2.808C30.738,27.143,30.436,27.448,30.062,27.448 M18.092,26.098H29.39v-1.461H18.092V26.098z"/>
	<path fill="#FFFFFF" d="M18.689,33.545c-0.321,0-0.587-0.264-0.587-0.589v-6.186c0-0.325,0.267-0.589,0.587-0.589
		c0.327,0,0.59,0.264,0.59,0.589v6.186C19.28,33.281,19.017,33.545,18.689,33.545"/>
	<path fill="#FFFFFF" d="M28.902,33.545c-0.323,0-0.588-0.264-0.588-0.589v-6.186c0-0.325,0.265-0.589,0.588-0.589
		c0.325,0,0.59,0.264,0.59,0.589v6.186C29.492,33.281,29.228,33.545,28.902,33.545"/>
	<path fill="#FFFFFF" d="M23.736,33.545c-0.319,0-0.588-0.264-0.588-0.589v-6.186c0-0.325,0.269-0.589,0.588-0.589
		c0.324,0,0.588,0.264,0.588,0.589v6.186C24.324,33.281,24.061,33.545,23.736,33.545"/>
	<path fill="#FFFFFF" d="M16.218,14.988c-0.371,0-0.671-0.304-0.671-0.678v-1.786c0-0.374,0.3-0.673,0.671-0.673h1.688
		c0.375,0,0.677,0.3,0.677,0.673c0,0.373-0.303,0.675-0.677,0.675h-1.01v1.11C16.896,14.685,16.592,14.988,16.218,14.988"/>
	<path fill="#FFFFFF" d="M22.615,14.988c-0.375,0-0.675-0.304-0.675-0.678v-1.786c0-0.374,0.3-0.673,0.675-0.673h1.687
		c0.375,0,0.68,0.3,0.68,0.673c0,0.373-0.305,0.675-0.68,0.675H23.29v1.11C23.29,14.685,22.986,14.988,22.615,14.988"/>
	<path fill="#FFFFFF" d="M28.902,14.988c-0.373,0-0.671-0.304-0.671-0.678v-1.786c0-0.374,0.298-0.673,0.671-0.673h1.69
		c0.37,0,0.675,0.3,0.675,0.673c0,0.373-0.305,0.675-0.675,0.675h-1.014v1.11C29.579,14.685,29.276,14.988,28.902,14.988"/>
	<path fill="#FFFFFF" d="M16.218,20.143c-0.371,0-0.671-0.299-0.671-0.672v-1.785c0-0.374,0.3-0.679,0.671-0.679h1.688
		c0.375,0,0.677,0.305,0.677,0.679c0,0.373-0.303,0.671-0.677,0.671h-1.01v1.113C16.896,19.843,16.592,20.143,16.218,20.143"/>
	<path fill="#FFFFFF" d="M22.615,20.143c-0.375,0-0.675-0.299-0.675-0.672v-1.785c0-0.374,0.3-0.679,0.675-0.679h1.687
		c0.375,0,0.68,0.305,0.68,0.679c0,0.373-0.305,0.671-0.68,0.671H23.29v1.113C23.29,19.843,22.986,20.143,22.615,20.143"/>
	<path fill="#FFFFFF" d="M28.902,20.143c-0.373,0-0.671-0.299-0.671-0.672v-1.785c0-0.374,0.298-0.679,0.671-0.679h1.69
		c0.37,0,0.675,0.305,0.675,0.679c0,0.373-0.305,0.671-0.675,0.671h-1.014v1.113C29.579,19.843,29.276,20.143,28.902,20.143"/>
</g>
</svg>
