<?xml version="1.0" encoding="utf-8"?>
<!-- Generator: Adobe Illustrator 15.0.0, SVG Export Plug-In . SVG Version: 6.00 Build 0)  -->
<!DOCTYPE svg PUBLIC "-//W3C//DTD SVG 1.1//EN" "http://www.w3.org/Graphics/SVG/1.1/DTD/svg11.dtd">
<svg version="1.1" id="Camada_1" xmlns="http://www.w3.org/2000/svg" xmlns:xlink="http://www.w3.org/1999/xlink" x="0px" y="0px"
	 width="47.444px" height="40.143px" viewBox="0 0 47.444 40.143" enable-background="new 0 0 47.444 40.143" xml:space="preserve">
<path fill="#FFFFFF" d="M26.204,38.082h0.263c1.176,0,2.131-0.958,2.131-2.132v-4.913c0.42-0.367,0.712-0.881,0.785-1.464
	l0.231-1.794c0.354-2.774,1.151-5.458,2.365-7.975l1.714-3.55c0.297-0.694,0.521-1.414,0.677-2.154
	c0.152-0.756,0.234-1.534,0.234-2.303c0-3.037-1.181-5.886-3.323-8.032c-2.149-2.144-5.001-3.327-8.034-3.327
	c-3.026,0-5.877,1.183-8.029,3.327c-2.145,2.146-3.322,4.996-3.322,8.032c0,0.769,0.081,1.546,0.231,2.303
	c0.158,0.747,0.387,1.466,0.695,2.187l1.698,3.518c1.213,2.518,2.006,5.201,2.36,7.975l0.231,1.794
	c0.074,0.583,0.365,1.097,0.788,1.464v4.913c0,1.174,0.956,2.132,2.135,2.132h0.031c0.244,1.08,1.207,1.883,2.353,1.883h1.431
	C24.998,39.965,25.963,39.162,26.204,38.082 M26.954,31.802l-7.413,1.134v-1.289h7.413V31.802z M21.972,29.978V16.786
	c0.512-0.25,0.887-0.707,1.052-1.266h0.449c0.169,0.559,0.54,1.017,1.051,1.266v13.192H21.972z M18.746,29.361l-0.232-1.784
	c-0.375-2.955-1.223-5.807-2.515-8.485l-1.679-3.487c-0.253-0.584-0.447-1.2-0.581-1.839c-0.133-0.647-0.201-1.309-0.201-1.968
	c0-2.594,1.01-5.034,2.84-6.869c1.841-1.832,4.28-2.846,6.869-2.846c2.592,0,5.035,1.014,6.869,2.846
	c1.83,1.835,2.842,4.275,2.842,6.869c0,0.659-0.064,1.321-0.2,1.968c-0.129,0.632-0.322,1.247-0.559,1.807l-1.7,3.52
	c-1.296,2.679-2.143,5.53-2.513,8.485l-0.232,1.784c-0.045,0.351-0.341,0.616-0.692,0.616h-0.896v-13.1
	c0.788-0.304,1.354-1.049,1.354-1.935c0-1.148-0.934-2.081-2.085-2.081c-0.752,0-1.379,0.416-1.743,1.015h-0.885
	c-0.367-0.599-0.995-1.015-1.746-1.015c-1.148,0-2.08,0.932-2.08,2.081c0,0.886,0.559,1.631,1.347,1.935v13.1h-0.894
	C19.082,29.978,18.789,29.712,18.746,29.361 M19.541,34.979v-0.378l7.413-1.138v0.376L19.541,34.979z M20.883,36.464
	c-0.014,0-0.026-0.02-0.048-0.02l6.119-0.945v0.451c0,0.27-0.219,0.489-0.487,0.489h-0.909h-0.118h-4.497
	C20.919,36.439,20.907,36.464,20.883,36.464 M23.85,38.321h-1.431c-0.218,0-0.407-0.093-0.548-0.239h2.528
	C24.26,38.229,24.068,38.321,23.85,38.321"/>
</svg>
