<?xml version="1.0" encoding="utf-8"?>
<!-- Generator: Adobe Illustrator 15.0.0, SVG Export Plug-In . SVG Version: 6.00 Build 0)  -->
<!DOCTYPE svg PUBLIC "-//W3C//DTD SVG 1.1//EN" "http://www.w3.org/Graphics/SVG/1.1/DTD/svg11.dtd">
<svg version="1.1" id="Camada_1" xmlns="http://www.w3.org/2000/svg" xmlns:xlink="http://www.w3.org/1999/xlink" x="0px" y="0px"
	 width="40px" height="40px" viewBox="0 0 40 40" enable-background="new 0 0 40 40" xml:space="preserve">
<g>
	<path fill="#FFFFFF" d="M4.054,23.813c0-8.81,7.133-15.949,15.946-15.949c8.807,0,15.946,7.139,15.946,15.949
		c0,8.804-7.14,15.943-15.946,15.943C11.187,39.757,4.054,32.617,4.054,23.813 M5.645,23.813C5.659,31.739,12.068,38.154,20,38.172
		c7.929-0.018,14.341-6.433,14.358-14.358C34.341,15.881,27.929,9.466,20,9.455C12.068,9.466,5.659,15.881,5.645,23.813"/>
	<path fill="#FFFFFF" d="M17.428,23.813c0-1.423,1.155-2.572,2.572-2.572s2.568,1.149,2.568,2.572c0,1.417-1.151,2.565-2.568,2.565
		S17.428,25.23,17.428,23.813"/>
	<path fill="#FFFFFF" d="M15.37,4.871c0-2.555,2.076-4.627,4.63-4.627s4.624,2.073,4.627,4.627C24.624,7.425,22.555,9.495,20,9.498
		C17.445,9.495,15.37,7.425,15.37,4.871 M16.96,4.871C16.963,6.55,18.321,7.91,20,7.91c1.676,0,3.033-1.36,3.037-3.039
		C23.033,3.191,21.676,1.834,20,1.831C18.321,1.834,16.963,3.191,16.96,4.871"/>
	<path fill="#FFFFFF" d="M4.932,11.266c0-1.634,1.323-2.957,2.954-2.957s2.954,1.323,2.954,2.957s-1.323,2.957-2.954,2.957
		S4.932,12.899,4.932,11.266"/>
	<path fill="#FFFFFF" d="M29.158,11.266c0-1.634,1.325-2.957,2.956-2.957s2.954,1.323,2.954,2.957s-1.323,2.957-2.954,2.957
		S29.158,12.899,29.158,11.266"/>
	<polygon fill="#FFFFFF" points="19.438,23.249 24.952,17.729 26.081,18.855 20.559,24.372 	"/>
</g>
</svg>
