<?xml version="1.0" encoding="utf-8"?>
<!-- Generator: Adobe Illustrator 15.0.0, SVG Export Plug-In . SVG Version: 6.00 Build 0)  -->
<!DOCTYPE svg PUBLIC "-//W3C//DTD SVG 1.1//EN" "http://www.w3.org/Graphics/SVG/1.1/DTD/svg11.dtd">
<svg version="1.1" id="Camada_1" xmlns="http://www.w3.org/2000/svg" xmlns:xlink="http://www.w3.org/1999/xlink" x="0px" y="0px"
	 width="40px" height="40px" viewBox="0 0 40 40" enable-background="new 0 0 40 40" xml:space="preserve">
<g>
	<path fill="#FEFEFE" d="M20,0.66C9.319,0.663,0.662,9.321,0.662,19.996C0.662,30.677,9.319,39.34,20,39.34
		c10.682,0,19.338-8.663,19.338-19.344C39.338,9.321,30.682,0.663,20,0.66 M20.941,37.424v-1.74h-1.885v1.74
		c-8.884-0.485-15.993-7.595-16.481-16.479h1.738v-1.888H2.572C3.061,10.171,10.17,3.062,19.056,2.576v1.738h1.887V2.576
		c8.887,0.486,15.996,7.595,16.482,16.482h-1.738v1.882h1.738C36.938,29.829,29.828,36.938,20.941,37.424 M21.113,22.188
		l-2.69-0.503l-0.604-2.832c-0.085-0.373-0.379-0.661-0.757-0.729c-0.379-0.067-0.763,0.102-0.961,0.424L9.237,29.467
		c-0.234,0.373-0.178,0.856,0.133,1.17c0.181,0.181,0.424,0.274,0.667,0.274c0.169,0,0.345-0.048,0.5-0.142l10.904-6.857
		c0.328-0.209,0.496-0.597,0.424-0.975C21.791,22.556,21.492,22.256,21.113,22.188 M13.032,26.975l3.43-5.459l0.251,1.182
		c0.076,0.373,0.373,0.661,0.749,0.729l0.936,0.176L13.032,26.975z M29.465,9.23l-10.906,6.858
		c-0.333,0.209-0.498,0.596-0.427,0.975c0.076,0.378,0.373,0.681,0.754,0.751l2.689,0.497l0.611,2.834
		c0.078,0.373,0.379,0.664,0.756,0.729c0.057,0.008,0.107,0.014,0.164,0.014c0.32,0,0.623-0.161,0.797-0.44l6.855-10.916
		c0.238-0.373,0.184-0.856-0.129-1.172C30.318,9.049,29.838,8.996,29.465,9.23 M23.543,18.484L23.289,17.3
		c-0.08-0.37-0.379-0.656-0.746-0.727L21.6,16.401l5.373-3.379L23.543,18.484z M21.283,20.001c0-0.712-0.574-1.283-1.283-1.283
		c-0.712,0-1.283,0.571-1.283,1.283c0,0.707,0.571,1.283,1.283,1.283C20.709,21.284,21.283,20.708,21.283,20.001"/>
</g>
</svg>
