<?xml version="1.0" encoding="utf-8"?>
<!-- Generator: Adobe Illustrator 15.0.0, SVG Export Plug-In . SVG Version: 6.00 Build 0)  -->
<!DOCTYPE svg PUBLIC "-//W3C//DTD SVG 1.1//EN" "http://www.w3.org/Graphics/SVG/1.1/DTD/svg11.dtd">
<svg version="1.1" id="Camada_1" xmlns="http://www.w3.org/2000/svg" xmlns:xlink="http://www.w3.org/1999/xlink" x="0px" y="0px"
	 width="40px" height="40px" viewBox="0 0 40 40" enable-background="new 0 0 40 40" xml:space="preserve">
<g>
	<g>
		<g>
			<path fill="#EFB509" d="M31.845,18.901l-3.715-3.714v-4.291c0-0.776-0.629-1.405-1.406-1.405c-0.776,0-1.404,0.629-1.404,1.405
				v1.48l-2.765-2.766c-1.369-1.367-3.747-1.364-5.111,0.002l-9.288,9.288c-0.548,0.55-0.548,1.439,0,1.987
				c0.548,0.55,1.439,0.55,1.987,0l9.288-9.288c0.302-0.302,0.836-0.302,1.137-0.001l9.289,9.289
				c0.275,0.275,0.635,0.412,0.995,0.412c0.358,0,0.718-0.137,0.993-0.412C32.394,20.341,32.394,19.452,31.845,18.901z"/>
			<path fill="#EFB509" d="M20.488,14.267c-0.27-0.27-0.707-0.27-0.976,0l-8.17,8.168c-0.129,0.128-0.202,0.305-0.202,0.488v5.956
				c0,1.398,1.133,2.532,2.531,2.532h4.044v-6.265h4.567v6.265h4.046c1.398,0,2.531-1.134,2.531-2.532v-5.956
				c0-0.184-0.073-0.36-0.202-0.488L20.488,14.267z"/>
		</g>
	</g>
</g>
<circle fill="none" stroke="#EFB509" stroke-width="2" stroke-miterlimit="10" cx="20" cy="20.001" r="19"/>
</svg>
